<svg xmlns="http://www.w3.org/2000/svg" xmlns:xlink="http://www.w3.org/1999/xlink" viewBox="0 0 661.71 253.64"><defs><linearGradient id="7958c449-d990-4a70-844e-3de822f8632f" x1="420.19" y1="186.75" x2="420.19" y2="183.05" gradientUnits="userSpaceOnUse"><stop offset="0.12" stop-color="#fff"/><stop offset="0.23" stop-color="#fefcfb"/><stop offset="0.35" stop-color="#f9f4ef"/><stop offset="0.46" stop-color="#f2e7dc"/><stop offset="0.57" stop-color="#e8d4c0"/><stop offset="0.68" stop-color="#dbbc9d"/><stop offset="0.79" stop-color="#cb9e72"/><stop offset="0.81" stop-color="#c8996b"/></linearGradient><linearGradient id="290b6458-8637-40a2-8752-2143b16c9382" x1="139.96" y1="-551.96" x2="174.77" y2="-551.96" gradientTransform="translate(484.92 -330.52) rotate(180)" gradientUnits="userSpaceOnUse"><stop offset="0"/><stop offset="0.44" stop-color="#020202"/><stop offset="0.6" stop-color="#090909"/><stop offset="0.72" stop-color="#141414"/><stop offset="0.81" stop-color="#252525"/><stop offset="0.87" stop-color="#363636"/><stop offset="0.9" stop-color="#443f3b"/><stop offset="0.95" stop-color="#685847"/><stop offset="1" stop-color="#987a58"/></linearGradient><linearGradient id="e77befd9-317e-4128-a2ed-34a950c1ab90" x1="-114.54" y1="-131.93" x2="-97.14" y2="-131.93" gradientTransform="translate(512.45 74.19) rotate(-90)" gradientUnits="userSpaceOnUse"><stop offset="0"/><stop offset="0.44" stop-color="#020202"/><stop offset="0.6" stop-color="#090909"/><stop offset="0.72" stop-color="#141414"/><stop offset="0.81" stop-color="#252525"/><stop offset="0.87" stop-color="#363636"/><stop offset="0.9" stop-color="#444"/><stop offset="0.95" stop-color="#686868"/><stop offset="1" stop-color="#969696"/></linearGradient><linearGradient id="c4e96ffa-f36b-4918-acc6-306f22689cf2" x1="-114.54" y1="-167.46" x2="-97.14" y2="-167.46" gradientTransform="translate(505.16 71.47) rotate(-90)" xlink:href="#e77befd9-317e-4128-a2ed-34a950c1ab90"/><linearGradient id="56a3fa88-3b77-4f70-bc4a-a88c34f06185" x1="139.96" y1="-515.22" x2="174.77" y2="-515.22" xlink:href="#290b6458-8637-40a2-8752-2143b16c9382"/><linearGradient id="cec3c9c6-61d6-4352-b416-c75fb26b6254" x1="325.03" y1="186.88" x2="351.87" y2="186.88" gradientTransform="matrix(1, 0, 0, 1, 0, 0)" xlink:href="#e77befd9-317e-4128-a2ed-34a950c1ab90"/><linearGradient id="19c2b5cf-a6dd-4306-8ea2-51cba68d04f5" x1="337.67" y1="186.75" x2="337.67" y2="183.05" xlink:href="#7958c449-d990-4a70-844e-3de822f8632f"/><linearGradient id="fae969a4-537a-47f5-aa81-78af1df2f761" x1="139.96" y1="-516.29" x2="143.08" y2="-516.29" gradientTransform="translate(477.63 -333.23) rotate(180)" xlink:href="#290b6458-8637-40a2-8752-2143b16c9382"/><linearGradient id="d6282a9b-8541-4cbf-b8c2-69f14eecf617" x1="-114.54" y1="-167.5" x2="-97.13" y2="-167.5" gradientTransform="translate(505.16 71.47) rotate(-90)" xlink:href="#e77befd9-317e-4128-a2ed-34a950c1ab90"/><linearGradient id="5b6f604d-d643-4cbd-b19d-c7c8bbccad44" x1="414.28" y1="66.25" x2="440.07" y2="66.25" gradientUnits="userSpaceOnUse"><stop offset="0"/><stop offset="0.19" stop-color="#030303"/><stop offset="0.32" stop-color="#0c0c0c"/><stop offset="0.44" stop-color="#1c1c1c"/><stop offset="0.54" stop-color="#323232"/><stop offset="0.64" stop-color="#4e4e4e"/><stop offset="0.74" stop-color="#727272"/><stop offset="0.83" stop-color="#9b9b9b"/><stop offset="0.92" stop-color="#cacaca"/><stop offset="1" stop-color="#fff"/></linearGradient><linearGradient id="74b163d5-6d01-47c0-bc45-63e7174e99e9" x1="365.44" y1="62.65" x2="373.1" y2="62.65" gradientUnits="userSpaceOnUse"><stop offset="0" stop-color="#f08d3f"/><stop offset="0.07" stop-color="#e37a36"/><stop offset="0.15" stop-color="#dc6f30"/><stop offset="0.23" stop-color="#d96b2e"/><stop offset="0.31" stop-color="#e27434"/><stop offset="0.49" stop-color="#f2833f"/><stop offset="0.7" stop-color="#fc8c45"/><stop offset="0.97" stop-color="#ff8f47"/></linearGradient></defs><title>home_header_img</title><g style="isolation:isolate"><g id="622cd1ed-bc55-4baf-9564-b4dc35eccc6d" data-name="Слой 1"><rect x="203.06" y="217.61" width="8.89" height="12.65" fill="#e6b88a"/><rect x="210.36" y="217.61" width="40.24" height="12.65" fill="#e6b88a"/><rect x="246.15" y="217.61" width="8.89" height="12.65" fill="#e6b88a"/><path d="M95.59,217.61H203.24a.75.75,0,0,1,.75.75v1.89a0,0,0,0,1,0,0H94.83a0,0,0,0,1,0,0v-1.89A.75.75,0,0,1,95.59,217.61Z" fill="#ffecd5"/><rect x="94.85" y="220.25" width="108.21" height="10.01" fill="#ffe5c1"/><rect x="203.06" y="217.61" width="51.98" height="2.65" fill="#f8d0a9"/><rect x="144.8" y="115.13" width="55.72" height="51.08" fill="#bc7a4b"/><rect x="127.28" y="115.13" width="51.08" height="51.08" fill="#f6cda1"/><rect x="129.98" y="154.38" width="13.67" height="5.76" fill="#fff"/><rect x="160.23" y="154.38" width="6.84" height="6.84" fill="#bc7a4b"/><rect x="168.77" y="154.38" width="6.84" height="6.84" fill="#bc7a4b"/><rect x="127.28" y="164.85" width="51.08" height="1.36" fill="#c08661" opacity="0.5"/><rect x="178.34" y="164.85" width="22.18" height="1.36" fill="#c08661" opacity="0.5" style="mix-blend-mode:multiply"/><rect x="127.28" y="115.18" width="51.08" height="1.36" fill="#c08661" opacity="0.5" style="mix-blend-mode:screen"/><rect x="178.34" y="115.18" width="22.18" height="1.36" fill="#c08661" opacity="0.5" style="mix-blend-mode:screen"/><rect x="144.8" y="166.35" width="55.72" height="51.08" fill="#bc7a4b"/><rect x="127.28" y="166.35" width="51.08" height="51.08" fill="#f6cda1"/><rect x="129.98" y="205.6" width="13.67" height="5.76" fill="#fff"/><rect x="160.23" y="205.6" width="6.84" height="6.84" fill="#bc7a4b"/><rect x="168.77" y="205.6" width="6.84" height="6.84" fill="#bc7a4b"/><rect x="127.28" y="216.07" width="51.08" height="1.36" fill="#c08661" opacity="0.5"/><rect x="178.34" y="216.07" width="22.18" height="1.36" fill="#c08661" opacity="0.5" style="mix-blend-mode:multiply"/><rect x="127.28" y="166.4" width="51.08" height="1.36" fill="#c08661" opacity="0.5" style="mix-blend-mode:screen"/><rect x="178.34" y="166.4" width="22.18" height="1.36" fill="#c08661" opacity="0.5" style="mix-blend-mode:screen"/><rect x="198.26" y="115.13" width="55.72" height="51.08" fill="#b76d36"/><rect x="180.74" y="115.13" width="51.08" height="51.08" fill="#f6cda1"/><rect x="183.43" y="154.38" width="13.67" height="5.76" fill="#fff"/><rect x="213.68" y="154.38" width="6.84" height="6.84" fill="#bc7a4b"/><rect x="222.22" y="154.38" width="6.84" height="6.84" fill="#bc7a4b"/><rect x="180.74" y="164.85" width="51.08" height="1.36" fill="#c08661" opacity="0.5"/><rect x="231.8" y="164.85" width="22.18" height="1.36" fill="#c08661" opacity="0.5" style="mix-blend-mode:multiply"/><rect x="180.74" y="115.18" width="51.08" height="1.36" fill="#c08661" opacity="0.5" style="mix-blend-mode:screen"/><rect x="231.8" y="115.18" width="22.18" height="1.36" fill="#c08661" opacity="0.5" style="mix-blend-mode:screen"/><rect x="198.26" y="166.35" width="55.72" height="51.08" fill="#b76d36"/><rect x="180.74" y="166.35" width="51.08" height="51.08" fill="#f6cda1"/><rect x="183.43" y="205.6" width="13.67" height="5.76" fill="#fff"/><rect x="213.68" y="205.6" width="6.84" height="6.84" fill="#bc7a4b"/><rect x="222.22" y="205.6" width="6.84" height="6.84" fill="#bc7a4b"/><rect x="180.74" y="216.07" width="51.08" height="1.36" fill="#c08661" opacity="0.5"/><rect x="231.8" y="216.07" width="22.18" height="1.36" fill="#c08661" opacity="0.5" style="mix-blend-mode:multiply"/><rect x="180.74" y="166.4" width="51.08" height="1.36" fill="#c08661" opacity="0.5" style="mix-blend-mode:screen"/><rect x="231.8" y="166.4" width="22.18" height="1.36" fill="#c08661" opacity="0.5" style="mix-blend-mode:screen"/><rect x="115.41" y="115.13" width="55.72" height="51.08" fill="#b76d36"/><rect x="97.89" y="115.13" width="51.08" height="51.08" fill="#f6c38b"/><rect x="100.58" y="154.38" width="13.67" height="5.76" fill="#fff"/><rect x="130.83" y="154.38" width="6.84" height="6.84" fill="#bc7a4b"/><rect x="139.37" y="154.38" width="6.84" height="6.84" fill="#bc7a4b"/><rect x="97.89" y="164.85" width="51.08" height="1.36" fill="#c08661" opacity="0.5"/><rect x="148.95" y="164.85" width="22.18" height="1.36" fill="#c08661" opacity="0.5" style="mix-blend-mode:multiply"/><rect x="97.89" y="115.18" width="51.08" height="1.36" fill="#c08661" opacity="0.5" style="mix-blend-mode:screen"/><rect x="148.95" y="115.18" width="22.18" height="1.36" fill="#c08661" opacity="0.5" style="mix-blend-mode:screen"/><rect x="81.73" y="142.72" width="48.27" height="1.36" transform="translate(241.98 34.83) rotate(90)" fill="#c08661" opacity="0.5" style="mix-blend-mode:screen"/><rect x="115.41" y="166.35" width="55.72" height="51.08" fill="#b76d36"/><rect x="97.89" y="166.35" width="51.08" height="51.08" fill="#f6c38b"/><rect x="100.58" y="205.6" width="13.67" height="5.76" fill="#fff"/><rect x="130.83" y="205.6" width="6.84" height="6.84" fill="#bc7a4b"/><rect x="139.37" y="205.6" width="6.84" height="6.84" fill="#bc7a4b"/><rect x="97.89" y="216.07" width="51.08" height="1.36" fill="#c08661" opacity="0.5"/><rect x="148.95" y="216.07" width="22.18" height="1.36" fill="#c08661" opacity="0.5" style="mix-blend-mode:multiply"/><rect x="97.89" y="166.4" width="51.08" height="1.36" fill="#c08661" opacity="0.5" style="mix-blend-mode:screen"/><rect x="81.73" y="193.94" width="48.27" height="1.36" transform="translate(293.19 86.04) rotate(90)" fill="#c08661" opacity="0.5" style="mix-blend-mode:screen"/><rect x="148.95" y="166.4" width="22.18" height="1.36" fill="#c08661" opacity="0.5" style="mix-blend-mode:screen"/><rect x="169.87" y="115.13" width="55.72" height="51.08" fill="#b76d36"/><rect x="152.35" y="115.13" width="51.08" height="51.08" fill="#f6c38b"/><rect x="155.04" y="154.38" width="13.67" height="5.76" fill="#fff"/><rect x="185.29" y="154.38" width="6.84" height="6.84" fill="#bc7a4b"/><rect x="193.83" y="154.38" width="6.84" height="6.84" fill="#bc7a4b"/><rect x="152.35" y="164.85" width="51.08" height="1.36" fill="#c08661" opacity="0.5"/><rect x="203.41" y="164.85" width="22.18" height="1.36" fill="#c08661" opacity="0.5" style="mix-blend-mode:multiply"/><rect x="152.35" y="115.18" width="51.08" height="1.36" fill="#c08661" opacity="0.5" style="mix-blend-mode:screen"/><rect x="203.41" y="115.18" width="22.18" height="1.36" fill="#c08661" opacity="0.5" style="mix-blend-mode:screen"/><rect x="169.87" y="166.35" width="55.72" height="51.08" fill="#b76d36"/><rect x="152.35" y="166.35" width="51.08" height="51.08" fill="#f6c38b"/><rect x="155.04" y="205.6" width="13.67" height="5.76" fill="#fff"/><rect x="185.29" y="205.6" width="6.84" height="6.84" fill="#bc7a4b"/><rect x="193.83" y="205.6" width="6.84" height="6.84" fill="#bc7a4b"/><rect x="152.35" y="216.07" width="51.08" height="1.36" fill="#c08661" opacity="0.5"/><rect x="203.41" y="216.07" width="22.18" height="1.36" fill="#c08661" opacity="0.5" style="mix-blend-mode:multiply"/><rect x="152.35" y="166.4" width="51.08" height="1.36" fill="#c08661" opacity="0.5" style="mix-blend-mode:screen"/><rect x="203.41" y="166.4" width="22.18" height="1.36" fill="#c08661" opacity="0.5" style="mix-blend-mode:screen"/><rect x="108.04" y="220.25" width="19.72" height="10.01" fill="#fff"/><rect x="169.55" y="220.25" width="20.32" height="10.01" fill="#c08661"/><rect x="108.04" y="220.25" width="19.72" height="10.01" fill="#c08661"/><rect x="203.5" y="102.47" width="8.89" height="12.65" fill="#e6b88a"/><rect x="210.79" y="102.47" width="40.24" height="12.65" fill="#e6b88a"/><rect x="246.59" y="102.47" width="8.89" height="12.65" fill="#e6b88a"/><path d="M96,102.47H203.68a.75.75,0,0,1,.75.75v1.89a0,0,0,0,1,0,0H95.27a0,0,0,0,1,0,0v-1.89A.75.75,0,0,1,96,102.47Z" fill="#ffecd5"/><rect x="95.29" y="105.12" width="108.21" height="10.01" fill="#ffe5c1"/><rect x="203.5" y="102.47" width="51.98" height="2.65" fill="#f8d0a9"/><rect x="145.24" width="55.72" height="51.08" fill="#bc7a4b"/><rect x="127.72" width="51.08" height="51.08" fill="#f6cda1"/><rect x="130.41" y="39.25" width="13.67" height="5.76" fill="#fff"/><rect x="160.66" y="39.25" width="6.84" height="6.84" fill="#bc7a4b"/><rect x="169.2" y="39.25" width="6.84" height="6.84" fill="#bc7a4b"/><rect x="127.72" y="49.72" width="51.08" height="1.36" fill="#c08661" opacity="0.5"/><rect x="178.78" y="49.72" width="22.18" height="1.36" fill="#c08661" opacity="0.5" style="mix-blend-mode:multiply"/><rect x="127.72" y="0.05" width="51.08" height="1.36" fill="#c08661" opacity="0.5" style="mix-blend-mode:screen"/><rect x="178.78" y="0.05" width="22.18" height="1.36" fill="#c08661" opacity="0.5" style="mix-blend-mode:screen"/><rect x="145.24" y="51.22" width="55.72" height="51.08" fill="#bc7a4b"/><rect x="127.72" y="51.22" width="51.08" height="51.08" fill="#f6cda1"/><rect x="130.41" y="90.47" width="13.67" height="5.76" fill="#fff"/><rect x="160.66" y="90.47" width="6.84" height="6.84" fill="#bc7a4b"/><rect x="169.2" y="90.47" width="6.84" height="6.84" fill="#bc7a4b"/><rect x="127.72" y="100.94" width="51.08" height="1.36" fill="#c08661" opacity="0.5"/><rect x="178.78" y="100.94" width="22.18" height="1.36" fill="#c08661" opacity="0.5" style="mix-blend-mode:multiply"/><rect x="127.72" y="51.27" width="51.08" height="1.36" fill="#c08661" opacity="0.5" style="mix-blend-mode:screen"/><rect x="178.78" y="51.27" width="22.18" height="1.36" fill="#c08661" opacity="0.5" style="mix-blend-mode:screen"/><rect x="198.7" width="55.72" height="51.08" fill="#b76d36"/><rect x="181.18" width="51.08" height="51.08" fill="#f6cda1"/><rect x="183.87" y="39.25" width="13.67" height="5.76" fill="#fff"/><rect x="214.12" y="39.25" width="6.84" height="6.84" fill="#bc7a4b"/><rect x="222.66" y="39.25" width="6.84" height="6.84" fill="#bc7a4b"/><rect x="181.18" y="49.72" width="51.08" height="1.36" fill="#c08661" opacity="0.5"/><rect x="232.24" y="49.72" width="22.18" height="1.36" fill="#c08661" opacity="0.5" style="mix-blend-mode:multiply"/><rect x="181.18" y="0.05" width="51.08" height="1.36" fill="#c08661" opacity="0.5" style="mix-blend-mode:screen"/><rect x="232.24" y="0.05" width="22.18" height="1.36" fill="#c08661" opacity="0.5" style="mix-blend-mode:screen"/><rect x="198.7" y="51.22" width="55.72" height="51.08" fill="#b76d36"/><rect x="181.18" y="51.22" width="51.08" height="51.08" fill="#f6cda1"/><rect x="183.87" y="90.47" width="13.67" height="5.76" fill="#fff"/><rect x="214.12" y="90.47" width="6.84" height="6.84" fill="#bc7a4b"/><rect x="222.66" y="90.47" width="6.84" height="6.84" fill="#bc7a4b"/><rect x="181.18" y="100.94" width="51.08" height="1.36" fill="#c08661" opacity="0.5"/><rect x="232.24" y="100.94" width="22.18" height="1.36" fill="#c08661" opacity="0.5" style="mix-blend-mode:multiply"/><rect x="181.18" y="51.27" width="51.08" height="1.36" fill="#c08661" opacity="0.5" style="mix-blend-mode:screen"/><rect x="232.24" y="51.27" width="22.18" height="1.36" fill="#c08661" opacity="0.5" style="mix-blend-mode:screen"/><rect x="115.85" width="55.72" height="51.08" fill="#b76d36"/><rect x="98.33" width="51.08" height="51.08" fill="#f6c38b"/><rect x="101.02" y="39.25" width="13.67" height="5.76" fill="#fff"/><rect x="131.27" y="39.25" width="6.84" height="6.84" fill="#bc7a4b"/><rect x="139.81" y="39.25" width="6.84" height="6.84" fill="#bc7a4b"/><rect x="98.33" y="49.72" width="51.08" height="1.36" fill="#c08661" opacity="0.5"/><rect x="149.38" y="49.72" width="22.18" height="1.36" fill="#c08661" opacity="0.5" style="mix-blend-mode:multiply"/><rect x="98.33" y="0.05" width="51.08" height="1.36" fill="#c08661" opacity="0.5" style="mix-blend-mode:screen"/><rect x="149.38" y="0.05" width="22.18" height="1.36" fill="#c08661" opacity="0.5" style="mix-blend-mode:screen"/><rect x="82.17" y="27.59" width="48.27" height="1.36" transform="translate(127.28 -80.74) rotate(90)" fill="#c08661" opacity="0.5" style="mix-blend-mode:screen"/><rect x="115.85" y="51.22" width="55.72" height="51.08" fill="#b76d36"/><rect x="98.33" y="51.22" width="51.08" height="51.08" fill="#f6c38b"/><rect x="101.02" y="90.47" width="13.67" height="5.76" fill="#fff"/><rect x="131.27" y="90.47" width="6.84" height="6.84" fill="#bc7a4b"/><rect x="139.81" y="90.47" width="6.84" height="6.84" fill="#bc7a4b"/><rect x="98.33" y="100.94" width="51.08" height="1.36" fill="#c08661" opacity="0.5"/><rect x="149.38" y="100.94" width="22.18" height="1.36" fill="#c08661" opacity="0.5" style="mix-blend-mode:multiply"/><rect x="98.33" y="51.27" width="51.08" height="1.36" fill="#c08661" opacity="0.5" style="mix-blend-mode:screen"/><rect x="82.17" y="78.81" width="48.27" height="1.36" transform="translate(178.5 -29.53) rotate(90)" fill="#c08661" opacity="0.5" style="mix-blend-mode:screen"/><rect x="149.38" y="51.27" width="22.18" height="1.36" fill="#c08661" opacity="0.5" style="mix-blend-mode:screen"/><rect x="170.31" width="55.72" height="51.08" fill="#b76d36"/><rect x="152.79" width="51.08" height="51.08" fill="#f6c38b"/><rect x="155.48" y="39.25" width="13.67" height="5.76" fill="#fff"/><rect x="185.73" y="39.25" width="6.84" height="6.84" fill="#bc7a4b"/><rect x="194.27" y="39.25" width="6.84" height="6.84" fill="#bc7a4b"/><rect x="152.79" y="49.72" width="51.08" height="1.36" fill="#c08661" opacity="0.5"/><rect x="203.84" y="49.72" width="22.18" height="1.36" fill="#c08661" opacity="0.5" style="mix-blend-mode:multiply"/><rect x="152.79" y="0.05" width="51.08" height="1.36" fill="#c08661" opacity="0.5" style="mix-blend-mode:screen"/><rect x="203.84" y="0.05" width="22.18" height="1.36" fill="#c08661" opacity="0.5" style="mix-blend-mode:screen"/><rect x="170.31" y="51.22" width="55.72" height="51.08" fill="#b76d36"/><rect x="152.79" y="51.22" width="51.08" height="51.08" fill="#f6c38b"/><rect x="155.48" y="90.47" width="13.67" height="5.76" fill="#fff"/><rect x="185.73" y="90.47" width="6.84" height="6.84" fill="#bc7a4b"/><rect x="194.27" y="90.47" width="6.84" height="6.84" fill="#bc7a4b"/><rect x="152.79" y="100.94" width="51.08" height="1.36" fill="#c08661" opacity="0.5"/><rect x="203.84" y="100.94" width="22.18" height="1.36" fill="#c08661" opacity="0.5" style="mix-blend-mode:multiply"/><rect x="152.79" y="51.27" width="51.08" height="1.36" fill="#c08661" opacity="0.5" style="mix-blend-mode:screen"/><rect x="203.84" y="51.27" width="22.18" height="1.36" fill="#c08661" opacity="0.5" style="mix-blend-mode:screen"/><rect x="108.48" y="105.12" width="19.72" height="10.01" fill="#fff"/><rect x="169.99" y="105.12" width="20.32" height="10.01" fill="#c08661"/><rect x="108.48" y="105.12" width="19.72" height="10.01" fill="#c08661"/><rect x="87.62" y="230.22" width="179.09" height="4.62" rx="1.43" ry="1.43" fill="#dcd6e1"/><circle cx="52.83" cy="157.46" r="0.8" transform="translate(-79.47 45.4) rotate(-30.28)" fill="#ffe22c"/><rect x="53.97" y="156.9" width="1.68" height="7.93" rx="0.27" ry="0.27" transform="translate(-80.91 46.86) rotate(-30.28)" fill="#e83005"/><ellipse cx="66.21" cy="146.51" rx="2.1" ry="2.62" transform="translate(-100.25 166.42) rotate(-73.77)" fill="#bec8cc"/><path d="M54.27,172.3l-18.19-1.22a1.41,1.41,0,0,0-1.54,1.24l-.11,1.46a1.38,1.38,0,0,0,1.34,1.44l18.19,1.22a.42.42,0,0,0,.4.29l7.48.5a.85.85,0,0,0,1-.66l.25-3.22a.83.83,0,0,0-.87-.78l-7.48-.5A.43.43,0,0,0,54.27,172.3Z" transform="translate(-7.29 -2.71)" fill="#ffdcc2"/><g opacity="0.1"><polygon points="55.81 173.31 51.16 173 51.19 172.7 55.84 173.02 55.81 173.31"/></g><g opacity="0.1"><polygon points="55.93 171.84 51.28 171.52 51.3 171.22 55.95 171.54 55.93 171.84"/></g><path d="M32.06,149.68l-4.31,1.06,6.71,23.72a1.18,1.18,0,0,0,1.43.77l2.05-.5a1.08,1.08,0,0,0,.83-1.33Z" transform="translate(-7.29 -2.71)" fill="#ffdcc2"/><path d="M35.89,161.64l-5.15,1.26a.83.83,0,0,1-1-.54l-.27-1,6.74-1.65.27,1A.76.76,0,0,1,35.89,161.64Z" transform="translate(-7.29 -2.71)" fill="#efd7cc" style="mix-blend-mode:multiply"/><path d="M35.7,160.54l-5.38,1.32a.9.9,0,0,1-1.09-.59l-2.65-9.36a.86.86,0,0,1,.66-1.05l5.31-1.3a.93.93,0,0,1,1.13.61l2.65,9.36A.82.82,0,0,1,35.7,160.54Z" transform="translate(-7.29 -2.71)" fill="#fb3826"/><rect x="18.9" y="192.8" width="6.85" height="51.28" fill="#e3c29e"/><rect x="10.64" y="192.8" width="6.85" height="51.28" fill="#e7c8a7"/><rect x="10.06" y="244.08" width="8.02" height="2.84" fill="#ddb68b"/><rect x="18.31" y="244.08" width="8.04" height="2.84" fill="#ddb68b"/><path d="M14,194.31H36.51l-.11,5a1.76,1.76,0,0,1-1.81,1.64H15.37A1.31,1.31,0,0,1,14,199.66Z" transform="translate(-7.29 -2.71)" fill="#e7c8a7"/><rect x="6.73" y="191.23" width="22.44" height="2.3" fill="#9a7054"/><rect x="9" y="190.7" width="1.21" height="3.84" fill="#e6d1b9"/><rect x="25.75" y="190.7" width="1.21" height="3.84" fill="#e6d1b9"/><rect x="19.75" y="190.56" width="3.58" height="4.42" fill="none" stroke="#ffbe4e" stroke-miterlimit="10" stroke-width="1.23"/><path d="M32.9,249.63H26.82c-.49,0-.89.23-.89.51v2.61c0,.28.4.51.89.51H39.06c.49,0,.89-.23.89-.51Z" transform="translate(-7.29 -2.71)"/><path d="M24.37,249.66H18.28c-.49,0-.89.23-.89.51v2.61c0,.28.4.51.89.51H30.53c.49,0,.89-.23.89-.51Z" transform="translate(-7.29 -2.71)"/><path d="M54.21,172.3,36,171.08a1.41,1.41,0,0,0-1.54,1.24l-.11,1.46a1.38,1.38,0,0,0,1.34,1.44l18.19,1.22a.42.42,0,0,0,.4.29l7.48.5a.85.85,0,0,0,1-.66l.25-3.22a.83.83,0,0,0-.87-.78l-7.48-.5A.43.43,0,0,0,54.21,172.3Z" transform="translate(-7.29 -2.71)" fill="#ffdcc2"/><g opacity="0.1"><polygon points="55.75 173.31 51.1 173 51.13 172.7 55.77 173.02 55.75 173.31"/></g><g opacity="0.1"><polygon points="55.87 171.84 51.22 171.52 51.24 171.22 55.89 171.54 55.87 171.84"/></g><path d="M32,149.68l-4.31,1.06,6.71,23.72a1.18,1.18,0,0,0,1.43.77l2.05-.5a1.08,1.08,0,0,0,.83-1.33Z" transform="translate(-7.29 -2.71)" fill="#ffdcc2"/><path d="M35.83,161.64l-5.15,1.26a.83.83,0,0,1-1-.54l-.27-1,6.74-1.65.27,1A.76.76,0,0,1,35.83,161.64Z" transform="translate(-7.29 -2.71)" fill="#efd7cc" style="mix-blend-mode:multiply"/><path d="M35.64,160.54l-5.38,1.32a.9.9,0,0,1-1.09-.59l-2.65-9.36a.86.86,0,0,1,.66-1.05l5.31-1.3a.93.93,0,0,1,1.13.61l2.65,9.36A.82.82,0,0,1,35.64,160.54Z" transform="translate(-7.29 -2.71)" fill="#fb3826"/><polygon points="16.52 134.11 12.6 134.11 10.63 134.11 10.63 141.48 12.6 141.48 12.6 142.83 18.48 142.83 18.48 134.11 16.52 134.11" fill="#ffdcc2"/><rect x="10.63" y="136.96" width="7.84" height="3.31" fill="#efd7cc" opacity="0.4" style="mix-blend-mode:multiply"/><path d="M34.42,127.19a6.71,6.71,0,0,0-1.27-3.93l-1.55-2.14c-.23-1.44-2.68-.27-3.9-1.19-6.14-4.62-7.48-6.36-13.7.63-4,4.5-4.12,4.27-3.49,6.5s2.49,7.4,2.49,7.4,0-.19,0-.49a9.52,9.52,0,0,0,10.79,6.91,9.58,9.58,0,0,0,1.53.13c3,0,5.27.27,7.07-.27a3.1,3.1,0,0,0,2.18-2.93c0-2.08-.15-5.22-.15-6.5Z" transform="translate(-7.29 -2.71)" fill="#ffdcc2"/><path d="M25.13,144.19H18.62c-3.4,0-5.34,5.61-5.34,11.86v38a1.35,1.35,0,0,0,1.22,1.45H35.65a3.19,3.19,0,0,0,2.88-3.43s-1.05-18.1-1.05-22.82C37.48,145.81,28.24,144.19,25.13,144.19Z" transform="translate(-7.29 -2.71)" fill="#0086d0"/><g opacity="0.5"><path d="M31.25,194.21h0a.28.28,0,0,1-.25-.3c0-.15,1.14-14.93,1.14-35.44,0-6.19-5-11.54-7.64-12.09a.28.28,0,0,1-.22-.33.28.28,0,0,1,.33-.22c3.18.65,8.09,6.36,8.09,12.63,0,20.53-1.13,35.33-1.14,35.48A.28.28,0,0,1,31.25,194.21Z" transform="translate(-7.29 -2.71)" fill="#007497"/><polygon points="22.04 160.42 19.18 160.42 19.18 154.88 20.53 156.18 22.04 154.88 22.04 160.42" fill="none" stroke="#007497" stroke-linejoin="round" stroke-width="0.78"/><polygon points="21.11 185.02 17.23 185.02 17.23 179.07 19.08 181.53 21.11 179.07 21.11 185.02" fill="none" stroke="#007497" stroke-linejoin="round" stroke-width="0.68"/><polygon points="19.08 181.53 17.29 179.09 21.06 179.09 19.08 181.53" fill="none" stroke="#007497" stroke-linejoin="round" stroke-width="0.68"/><polygon points="29.98 185.02 26.09 185.02 26.09 179.07 27.94 181.53 29.98 179.07 29.98 185.02" fill="none" stroke="#007497" stroke-linejoin="round" stroke-width="0.68"/><polygon points="27.94 181.53 26.15 179.09 29.92 179.09 27.94 181.53" fill="none" stroke="#007497" stroke-linejoin="round" stroke-width="0.68"/></g><path d="M30.53,146h-15a1,1,0,0,1-1-.92l.76-1.59c.28-.56.44-.92,1-.92H28.65Z" transform="translate(-7.29 -2.71)" fill="#1f9ae2"/><path d="M31.41,138.82a18.66,18.66,0,0,1-4.28-.5,1.9,1.9,0,0,1,0-1.3,11.05,11.05,0,0,0,5.95-.36C33.76,136.43,31.94,138.82,31.41,138.82Z" transform="translate(-7.29 -2.71)" fill="#fff"/><path d="M49.55,163.67l-17.85,3.7A1.41,1.41,0,0,0,30.54,169l.28,1.44a1.38,1.38,0,0,0,1.67,1l17.85-3.7a.42.42,0,0,0,.46.17l7.34-1.52a.85.85,0,0,0,.77-.9l-.62-3.17a.83.83,0,0,0-1-.52l-7.34,1.52A.43.43,0,0,0,49.55,163.67Z" transform="translate(-7.29 -2.71)" fill="#ffdcc2"/><g opacity="0.1"><rect x="54.42" y="165.06" width="4.66" height="0.3" transform="translate(-39.52 12.18) rotate(-11.67)"/></g><g opacity="0.1"><rect x="54.13" y="163.61" width="4.66" height="0.3" transform="translate(-39.29 12.12) rotate(-11.69)"/></g><path d="M17.81,150.31l-3.36,2.91,16.79,18.05a1.18,1.18,0,0,0,1.62,0l1.6-1.38a1.08,1.08,0,0,0,.14-1.56Z" transform="translate(-7.29 -2.71)" fill="#ffdcc2"/><path d="M26.68,159.21l-4,3.47a.83.83,0,0,1-1.14,0l-.69-.74,5.25-4.54.69.74A.76.76,0,0,1,26.68,159.21Z" transform="translate(-7.29 -2.71)" fill="#efd7cc" style="mix-blend-mode:multiply"/><path d="M26,158.31l-4.19,3.62a.9.9,0,0,1-1.24,0L14,154.79a.86.86,0,0,1,.11-1.24L18.2,150a.93.93,0,0,1,1.29,0l6.62,7.12A.82.82,0,0,1,26,158.31Z" transform="translate(-7.29 -2.71)" fill="#1f9ae2"/><rect x="57.28" y="146.26" width="6.82" height="31.27" rx="0.42" ry="0.42" transform="translate(40.38 -13.22) rotate(16.23)" fill="#fff"/><rect x="58.28" y="145.86" width="6.82" height="32.58" rx="0.43" ry="0.43" transform="translate(40.49 -13.49) rotate(16.23)" fill="#bc7a4b"/><path d="M20.8,131.09c0,1.59,2.09,3.21.41,3.21a2.88,2.88,0,1,1,0-5.75C22.89,128.56,20.8,129.51,20.8,131.09Z" transform="translate(-7.29 -2.71)" fill="#dfb095"/><ellipse cx="13.19" cy="128.59" rx="1.31" ry="1.22" fill="#ffdcc2"/><polygon points="18.2 125.45 15.81 127.64 14.6 128.87 12.29 131.14 9.64 132.27 8.19 134.39 6.31 134.02 3.96 129.73 20.33 122.09 26.66 122.58 18.2 125.45" fill="#9a6e31"/><path d="M35,124.87l-23.34,9a.29.29,0,0,1-.36-.14L10.56,132a.25.25,0,0,1,.15-.34l23.34-9a.29.29,0,0,1,.36.14l.77,1.72A.25.25,0,0,1,35,124.87Z" transform="translate(-7.29 -2.71)"/><path d="M35.16,121.53l-13.4,5.18-12.4,4.79c-2.14-4.79-2.77-13.38,2.52-16.14C22.88,109.64,33,116.74,35.16,121.53Z" transform="translate(-7.29 -2.71)" fill="#ffdf3d"/><g opacity="0.2"><path d="M9.18,132.58c-2.3-5.14-2.95-14.18,3-17.26a16.81,16.81,0,0,1,13.57-1.24,17,17,0,0,1,9.64,8.31l-1.87.83A15.11,15.11,0,0,0,25,116a14.62,14.62,0,0,0-12,1.12c-4.47,2.33-4,10.12-2,14.61Z" transform="translate(-7.29 -2.71)" fill="#ff9b1c"/></g><path d="M8.89,131.72c-2.34-5.23-2.68-14,2.76-16.81a18.07,18.07,0,0,1,14.62-1.17c4.89,1.7,8.23,5,9.37,7.58l-.95.42c-1-2.27-4.19-5.44-8.76-7a17,17,0,0,0-13.8,1.11c-4.87,2.54-4.46,10.62-2.29,15.47Z" transform="translate(-7.29 -2.71)" fill="#ffe22c"/><path d="M36.71,123.08l-27,10.46a.35.35,0,0,1-.44-.17l-1-2.17a.31.31,0,0,1,.18-.41l27-10.46a.35.35,0,0,1,.44.17l1,2.17A.31.31,0,0,1,36.71,123.08Z" transform="translate(-7.29 -2.71)" fill="#ffc024"/><rect x="0.23" y="249.02" width="40.23" height="4.62" rx="0.68" ry="0.68" fill="#dcd6e1"/><path d="M365.53,178.29l8.08.95q3.46-29.45,6.87-58.91,1.94-16.75,3.87-33.5c.33-2.87.34-5.93,3.39-7.46,2-1,4.85-.57,7-.57h29.51c7.6,0,15.2-.06,22.8,0,6.55.05,13.55,3.53,16.42,9.7.65,1.4,1.07,3,1.59,4.4l9.16,25.32,10.91,30.15L488.92,159c.5,1.37.93,2.79,1.5,4.13.86,2,1.94,4,2.9,5.95l8.83,18.09,6.47,13.25,7.31-3.57-17.74-36.34c-1.78-3.65-2.91-7.7-4.29-11.52L483,118.79,472.89,91c-.72-2-1.34-4-2.16-6a21.3,21.3,0,0,0-4.27-6.06A26.66,26.66,0,0,0,453,71.3a42.17,42.17,0,0,0-9.38-.63H398.11c-2.59,0-5.19,0-7.78,0A13.87,13.87,0,0,0,376.62,82.8c-1,7.9-1.82,15.84-2.74,23.76q-3.2,27.65-6.43,55.29l-1.93,16.44C365.77,178.32,371.77,125.05,365.53,178.29Z" transform="translate(-7.29 -2.71)" fill="#2f2f2f"/><rect x="479.23" y="58.25" width="44.97" height="14.16" fill="#efad42"/><path d="M478.64,58.25h8.73a0,0,0,0,1,0,0V72.41a0,0,0,0,1,0,0h-8.73A2.38,2.38,0,0,1,476.26,70V60.64A2.38,2.38,0,0,1,478.64,58.25Z" fill="#ffdf3d"/><polygon points="464.06 90.07 438.33 90.07 438.33 87.41 463.32 87.41 464.06 90.07" fill="#424442"/><rect x="434.31" y="82.56" width="25.73" height="2.66" fill="#424442"/><rect x="440.47" y="92.99" width="25.73" height="2.66" fill="#424442"/><rect x="442.6" y="98.58" width="25.73" height="2.66" fill="#424442"/><polygon points="477.08 140.34 449.55 82.53 447.94 82.56 475.45 140.34 477.08 140.34" fill="#424442"/><polygon points="469.69 140.34 442.18 82.56 440.53 82.53 468.06 140.34 469.69 140.34" fill="#424442"/><rect x="444.74" y="104.16" width="25.73" height="2.66" fill="#424442"/><rect x="446.87" y="109.75" width="25.73" height="2.66" fill="#424442"/><rect x="449.01" y="115.34" width="25.73" height="2.66" fill="#424442"/><rect x="451.14" y="120.92" width="25.73" height="2.66" fill="#424442"/><rect x="453.28" y="126.51" width="25.73" height="2.66" fill="#424442"/><rect x="455.41" y="132.09" width="25.73" height="2.66" fill="#424442"/><rect x="457.55" y="137.68" width="25.73" height="2.66" fill="#424442"/><circle cx="491.08" cy="222.73" r="25.99" fill="#1d1d1d"/><path d="M394.57,232.67a18.77,18.77,0,1,0-37.54,0c0,6.38,13.35,18.77,13.35,18.77h5.42A18.77,18.77,0,0,0,394.57,232.67Z" transform="translate(-7.29 -2.71)" fill="#1d1d1d"/><polygon points="483.77 159.01 471.67 167.34 471.67 183.16 493.13 167.34 483.77 159.01" fill="#2f2f2f"/><circle cx="485.66" cy="222.73" r="25.99" fill="#2f2f2f"/><circle cx="363.09" cy="229.96" r="18.77" fill="#2f2f2f"/><polygon points="496.66 167.34 471.3 167.34 480.84 186.66 521 186.66 496.66 167.34" fill="#ffce4a"/><polygon points="389.89 160.59 436.49 160.59 436.49 166.24 389.89 166.24 388.7 162.71 389.89 160.59" fill="#61443f"/><polygon points="385.37 125.32 395.65 160.69 388.7 162.71 377.13 122.93 385.37 125.32" fill="#61443f"/><rect x="396.06" y="165.85" width="29.08" height="2.99" fill="#2f2f2f"/><path d="M522.21,233.44V189.37H488.13l-9.54-19.31-18.35,15.81h-18.8l-6.67-14.32H320.2a6.93,6.93,0,0,0-6.93,6.93v48a6.93,6.93,0,0,0,6.93,6.93h202Z" transform="translate(-7.29 -2.71)" fill="#efad42"/><rect x="489.63" y="58.25" width="8.98" height="180.51" fill="#2f2f2f"/><rect x="487.37" y="58.25" width="9.29" height="180.51" fill="#424442"/><rect x="370.76" y="165.85" width="29.08" height="2.99" fill="#424442"/><rect x="411.19" y="160.59" width="25.3" height="5.65" fill="#2f2f2f"/><path d="M377.64,163.4h25.3L392.66,128a6.13,6.13,0,0,0-5.88-4.42h-20.7Z" transform="translate(-7.29 -2.71)" fill="#2f2f2f"/><polygon points="408.85 183.16 434.15 183.16 427.48 168.84 402.69 168.84 408.85 183.16" fill="#2f2f2f"/><path d="M570.14,241.48H526.33v-9h79.46l-18.85,6.26A53.3,53.3,0,0,1,570.14,241.48Z" transform="translate(-7.29 -2.71)" fill="#efad42"/><path d="M563.77,241.48H520v-9h79.46l-18.85,6.26A53.3,53.3,0,0,1,563.77,241.48Z" transform="translate(-7.29 -2.71)" fill="#ffdf3d"/><rect x="514.92" y="58.25" width="9.28" height="180.51" fill="#2f2f2f"/><rect x="512.67" y="58.25" width="9.29" height="180.51" fill="#424442"/><path d="M544.41,241.48H500.6v-9h79.46l-18.85,6.26A53.3,53.3,0,0,1,544.41,241.48Z" transform="translate(-7.29 -2.71)" fill="#efad42"/><path d="M538.47,241.48H494.66v-9h79.46l-18.85,6.26A53.3,53.3,0,0,1,538.47,241.48Z" transform="translate(-7.29 -2.71)" fill="#ffdf3d"/><rect x="499.44" y="69.65" width="5.43" height="160.14" fill="#2f2f2f"/><rect x="498.61" y="69.65" width="4.51" height="160.14" fill="#424442"/><rect x="522.79" y="69.65" width="5.43" height="160.14" fill="#2f2f2f"/><polygon points="430.84 136.35 426.99 128.03 430.7 126.31 433.25 131.82 440 130.74 440.65 134.77 430.84 136.35" fill="#2f2f2f"/><rect x="428.93" y="140.33" width="13.39" height="4.09" transform="translate(68.34 423.28) rotate(-56.33)" fill="#2f2f2f"/><path d="M433,146.24l-2.27,3.4c4.84,3,10.55-1.47,13.66-5,3.29-3.74,6-8.67,6.24-13.71.13-2.46-.45-5.15-2.49-6.73a6.52,6.52,0,0,0-5.59-.95c-5,1.24-9,5.76-11.5,10.06s-5.63,12.77-.32,16.34l2.27-3.4c-1.2-.79-1.07-2.89-.91-4.13a17.52,17.52,0,0,1,2-5.83,20.67,20.67,0,0,1,7-7.95c1.11-.69,2.75-1.58,4.1-1.16s1.47,2.21,1.42,3.4A18.23,18.23,0,0,1,443,139.9a20.28,20.28,0,0,1-4.82,5c-1.28.9-3.51,2.27-5.1,1.36C433,146.34,433.55,146.53,433,146.24Z" transform="translate(-7.29 -2.71)" fill="#2f2f2f"/><polygon points="452.67 165.92 433.29 136.18 437.49 134.04 456.87 163.78 452.67 165.92" fill="#2f2f2f"/><rect x="456.86" y="158.73" width="5.91" height="10.8" transform="translate(-22.32 274.96) rotate(-33.09)" fill="#2f2f2f"/><rect x="521.95" y="69.65" width="4.51" height="160.14" fill="#424442"/><polygon points="467.35 159.01 449.83 167.34 449.83 183.16 471.3 167.34 467.35 159.01" fill="#424442"/><polygon points="487.37 167.34 471.3 167.34 467.35 159.01 483.77 159.01 487.37 167.34" fill="#2f2f2f"/><path d="M426.2,131.55l-19.41-1.3a1.51,1.51,0,0,0-1.65,1.33l-.12,1.56a1.47,1.47,0,0,0,1.42,1.53l19.41,1.3a.44.44,0,0,0,.42.31l8,.54a.91.91,0,0,0,1-.7l.27-3.44a.89.89,0,0,0-.93-.83l-8-.54A.46.46,0,0,0,426.2,131.55Z" transform="translate(-7.29 -2.71)" fill="#ffdcc2"/><g opacity="0.1"><rect x="433" y="132.71" width="0.32" height="4.97" transform="translate(261.96 555.62) rotate(-86.16)"/></g><g opacity="0.1"><rect x="433.12" y="131.14" width="0.32" height="4.97" transform="translate(263.65 554.27) rotate(-86.16)"/></g><path d="M402.49,107.41l-4.6,1.13,7.16,25.31a1.26,1.26,0,0,0,1.52.83l2.19-.54a1.15,1.15,0,0,0,.89-1.42Z" transform="translate(-7.29 -2.71)" fill="#ffdcc2"/><path d="M406.59,120.18l-5.5,1.35a.88.88,0,0,1-1.07-.58l-.29-1,7.19-1.76.29,1A.81.81,0,0,1,406.59,120.18Z" transform="translate(-7.29 -2.71)" fill="#efd7cc" style="mix-blend-mode:multiply"/><path d="M406.38,119l-5.74,1.41a1,1,0,0,1-1.16-.63l-2.82-10a.91.91,0,0,1,.7-1.12l5.67-1.39a1,1,0,0,1,1.21.65l2.82,10A.88.88,0,0,1,406.38,119Z" transform="translate(-7.29 -2.71)" fill="#fb3826"/><polygon points="387.21 92.47 383.13 93.4 381.09 93.87 382.84 101.54 384.88 101.08 385.2 102.48 391.32 101.08 389.25 92.01 387.21 92.47" fill="#ffdcc2"/><rect x="389.34" y="98.57" width="8.37" height="3.53" transform="translate(-19.74 87.17) rotate(-12.83)" fill="#efd7cc" opacity="0.4" style="mix-blend-mode:multiply"/><path d="M402.19,80.52a10.76,10.76,0,0,0-3.3-3.51c-.58-1.45-2.85.35-4.34-.31-7.48-3.35-9.29-4.85-14.11,3.9-3.11,5.63-3.28,5.42-2.09,7.59s4.34,7.11,4.34,7.11,0-.19-.12-.51a16.33,16.33,0,0,0,14.49,4.41c5.53-1.26,9.73-3.53,7.72-12.36A33.28,33.28,0,0,0,402.19,80.52Z" transform="translate(-7.29 -2.71)" fill="#ffdcc2"/><path d="M402.89,95.47a19.91,19.91,0,0,1-4.57.49,2,2,0,0,1-.29-1.36,11.8,11.8,0,0,0,6.11-1.78C404.76,92.43,403.44,95.34,402.89,95.47Z" transform="translate(-7.29 -2.71)" fill="#fff"/><path d="M394.69,101.6l-6.89.93c-3.6.49-4.85,6.7-4,13.31l5.44,40.21a1.44,1.44,0,0,0,1.5,1.36l4-.55,12.64-1.71,5.69-.77c1.68-.23,1.71-1.89,1.44-3.89l-3.27-24.13c-.4-3-.65-4.71-1.43-10.32-.88-6.41-7.34-15.39-13.77-14.63Z" transform="translate(-7.29 -2.71)" fill="#e83005"/><polygon points="393.75 117.34 390.72 117.75 389.93 111.89 391.55 113.07 392.96 111.48 393.75 117.34" fill="#fb3826"/><polygon points="401.42 116.3 398.39 116.71 397.6 110.86 399.22 112.03 400.63 110.45 401.42 116.3" fill="#fb3826"/><path d="M403.63,102.3l-18.84,2.55a1,1,0,0,1-1.18-.83l.58-1.79c.22-.63.34-1,.91-1.11l16-2.17Z" transform="translate(-7.29 -2.71)" fill="#fb3826"/><path d="M408,155.09l-6.17-45.53a8.89,8.89,0,0,0-1.63-3.83,4.15,4.15,0,0,0-4-1.88l-.14-1.06a5.19,5.19,0,0,1,5,2.29,9.91,9.91,0,0,1,1.83,4.33l6.17,45.53Z" transform="translate(-7.29 -2.71)" fill="#fb3826"/><rect x="399.51" y="144.14" width="4.62" height="7.65" rx="0.94" ry="0.94" transform="translate(-23.51 52.54) rotate(-7.71)" fill="#fb3826"/><rect x="408.82" y="142.88" width="4.62" height="7.65" rx="0.94" ry="0.94" transform="translate(-23.25 53.78) rotate(-7.71)" fill="#fb3826"/><path d="M420.53,132.62l-19.41-1.3a1.51,1.51,0,0,0-1.65,1.33l-.12,1.56a1.47,1.47,0,0,0,1.42,1.53l19.41,1.3a.44.44,0,0,0,.42.31l8,.54a.91.91,0,0,0,1-.7l.27-3.44a.89.89,0,0,0-.93-.83l-8-.54A.46.46,0,0,0,420.53,132.62Z" transform="translate(-7.29 -2.71)" fill="#ffdcc2"/><g opacity="0.1"><rect x="427.32" y="133.78" width="0.32" height="4.97" transform="translate(255.6 550.95) rotate(-86.16)"/></g><g opacity="0.1"><rect x="427.45" y="132.2" width="0.32" height="4.97" transform="translate(257.21 549.57) rotate(-86.15)"/></g><path d="M396.82,108.47l-4.6,1.13,7.16,25.31a1.26,1.26,0,0,0,1.52.83l2.19-.54a1.15,1.15,0,0,0,.89-1.42Z" transform="translate(-7.29 -2.71)" fill="#ffdcc2"/><path d="M400.91,121.24l-5.5,1.35a.88.88,0,0,1-1.07-.58l-.29-1,7.19-1.76.29,1A.81.81,0,0,1,400.91,121.24Z" transform="translate(-7.29 -2.71)" fill="#efd7cc" style="mix-blend-mode:multiply"/><path d="M400.71,120.06,395,121.47a1,1,0,0,1-1.16-.63l-2.82-10a.92.92,0,0,1,.7-1.12l5.67-1.39a1,1,0,0,1,1.21.65l2.82,10A.88.88,0,0,1,400.71,120.06Z" transform="translate(-7.29 -2.71)" fill="#fb3826"/><rect x="446.95" y="185.79" width="8.58" height="3.03" transform="translate(-28.01 310.9) rotate(-37.53)" fill="#ddb68b"/><rect x="397.07" y="153.33" width="26.96" height="7.31" fill="#e3c29e"/><path d="M453.2,183.89l-20.58-26.79a2.69,2.69,0,0,0-3.78-.5l-3.66,2.81,22.22,28.93Z" transform="translate(-7.29 -2.71)" fill="#e3c29e"/><path d="M389.52,156.1h24l.65,5.31a1.88,1.88,0,0,1-1.93,1.75H391a1.39,1.39,0,0,1-1.44-1.34Z" transform="translate(-7.29 -2.71)" fill="#e7c8a7"/><rect x="389.05" y="153.38" width="26.46" height="2.45" transform="translate(-8.27 -0.14) rotate(-0.37)" fill="#9a7054"/><rect x="391.72" y="152.88" width="1.43" height="4.09" transform="translate(-8.27 -0.2) rotate(-0.37)" fill="#e6d1b9"/><rect x="411.48" y="152.75" width="1.43" height="4.09" transform="translate(-8.27 -0.08) rotate(-0.37)" fill="#e6d1b9"/><rect x="404.4" y="152.65" width="4.23" height="4.71" transform="translate(-8.27 -0.11) rotate(-0.37)" fill="none" stroke="#ffbe4e" stroke-miterlimit="10" stroke-width="1.38"/><path d="M454.84,186.45l-5.15,4c-.42.32-.61.77-.43,1l1.7,2.21c.18.24.67.17,1.09-.15l10.36-8c.42-.32.61-.77.43-1Z" transform="translate(-7.29 -2.71)"/><path d="M442.39,191.4l-6,2.53c-.48.21-.78.6-.67.87l1.09,2.57c.12.28.6.33,1.09.13l12-5.1c.48-.21.78-.6.67-.87Z" transform="translate(-7.29 -2.71)"/><rect x="434.52" y="189.87" width="8.56" height="3.03" transform="translate(-47.18 183.63) rotate(-22.96)" fill="#ddb68b"/><path d="M390.29,156v3.79a3.52,3.52,0,0,0,3.52,3.52h31.5V156Z" transform="translate(-7.29 -2.71)" fill="#e7c8a7"/><path d="M441.58,188.57l-13.34-31.49a2.42,2.42,0,0,0-3.18-1.29l-4.5,1.9,14.29,33.72Z" transform="translate(-7.29 -2.71)" fill="#e7c8a7"/><path d="M387.93,88.91c0,1.69,2.23,3.43.44,3.43a3.07,3.07,0,1,1,0-6.13C390.16,86.2,387.93,87.22,387.93,88.91Z" transform="translate(-7.29 -2.71)" fill="#dfb095"/><ellipse cx="380.62" cy="86.5" rx="1.4" ry="1.3" fill="#ffdcc2"/><polygon points="385.2 80.32 382.64 82.65 381.35 83.96 378.89 86.39 376.06 87.59 374.51 89.86 372.51 89.45 370 84.88 387.47 76.73 394.23 77.25 385.2 80.32" fill="#9a6e31"/><path d="M402.67,79.51l-24.91,9.63a.31.31,0,0,1-.39-.15l-.82-1.84a.27.27,0,0,1,.16-.36l24.91-9.63a.31.31,0,0,1,.39.15l.82,1.84A.27.27,0,0,1,402.67,79.51Z" transform="translate(-7.29 -2.71)"/><path d="M402.81,75.95l-14.3,5.53-13.23,5.12c-2.29-5.12-3-14.28,2.69-17.22C389.7,63.25,400.52,70.83,402.81,75.95Z" transform="translate(-7.29 -2.71)" fill="#ffe22c"/><g opacity="0.2"><path d="M375.08,87.74c-2.45-5.49-3.14-15.13,3.15-18.41A18,18,0,0,1,392.71,68,18.19,18.19,0,0,1,403,76.87l-2,.89a16.12,16.12,0,0,0-9-7.69,15.6,15.6,0,0,0-12.75,1.19c-4.77,2.49-4.31,10.79-2.17,15.59Z" transform="translate(-7.29 -2.71)" fill="#ff9b1c"/></g><path d="M374.77,86.82c-2.2-4.93-2.55-13.75,3.71-17a19.52,19.52,0,0,1,15.82-1.48c4.1,1.43,7.64,4.33,9,7.4l-1,.45c-1-2.3-4-5.3-8.36-6.81A18.43,18.43,0,0,0,379,70.78c-5.38,2.81-5.32,10.85-3.21,15.58Z" transform="translate(-7.29 -2.71)" fill="#ffe22c"/><path d="M404.46,77.6,375.6,88.76a.37.37,0,0,1-.47-.18l-1-2.31a.33.33,0,0,1,.2-.44l28.86-11.16a.37.37,0,0,1,.47.18l1,2.31A.33.33,0,0,1,404.46,77.6Z" transform="translate(-7.29 -2.71)" fill="#ffc024"/><path d="M341.51,178.29l8.08.95q3.46-29.45,6.87-58.91,1.94-16.75,3.87-33.5c.33-2.87.34-5.93,3.38-7.46,2-1,4.85-.57,7-.57h29.51c7.6,0,15.2-.06,22.8,0,6.55.05,13.55,3.53,16.42,9.7.65,1.4,1.07,3,1.59,4.4l9.16,25.32,10.91,30.15L464.9,159a39.06,39.06,0,0,1,1.5,4.13c1.08,4.56,3.47,9,5.45,13.2,1.88,4,3.81,8,5.76,12l7.31-3.57c-3.26-6.68-6.54-13.37-9.44-20.22a28.73,28.73,0,0,1-1.77-4.87,15.89,15.89,0,0,0-.62-1.86l-3.2-8.84L459,118.79,448.87,91c-.72-2-1.34-4-2.16-6a21.3,21.3,0,0,0-4.27-6.06A26.66,26.66,0,0,0,429,71.3a42.17,42.17,0,0,0-9.38-.63H374.09c-2.59,0-5.19,0-7.78,0A13.87,13.87,0,0,0,352.6,82.8c-1,7.9-1.82,15.84-2.74,23.76q-3.2,27.65-6.43,55.29l-1.93,16.44C341.76,178.32,347.75,125.05,341.51,178.29Z" transform="translate(-7.29 -2.71)" fill="#424442"/><path d="M317.08,233.44h1c0-.06,0-.12,0-.17h-2.54A6.94,6.94,0,0,0,317.08,233.44Z" transform="translate(-7.29 -2.71)" fill="#ffd055"/><polygon points="471.67 167.34 469.92 168.61 472.27 168.61 471.67 167.34" fill="#ffd055"/><polygon points="429.94 186.02 410.12 186.02 410.45 186.75 430.27 186.75 429.94 186.02" opacity="0.64" fill="url(#7958c449-d990-4a70-844e-3de822f8632f)" style="mix-blend-mode:multiply"/><path d="M318.08,232.67c0,.2,0,.39,0,.59H345V210a22.92,22.92,0,0,0-26.88,22.71Z" transform="translate(-7.29 -2.71)" fill="url(#290b6458-8637-40a2-8752-2143b16c9382)" style="mix-blend-mode:screen"/><path d="M331.24,193.09a6.21,6.21,0,0,0,5.93-4.37H325.31A6.21,6.21,0,0,0,331.24,193.09Z" transform="translate(-7.29 -2.71)" fill="#efad42"/><path d="M416.09,185.75H350.16a6,6,0,0,1-5.21-3.1v3.11h71.13Z" transform="translate(-7.29 -2.71)" fill="#ffd055"/><path d="M416.09,185.75H350.16a6,6,0,0,1-5.21-3.1v3.11h71.13Z" transform="translate(-7.29 -2.71)" opacity="0.5" fill="url(#e77befd9-317e-4128-a2ed-34a950c1ab90)" style="mix-blend-mode:screen"/><polygon points="469.92 168.61 449.83 183.16 443.01 186.02 480.53 186.02 472.27 168.61 469.92 168.61" fill="#ffd055"/><polygon points="337.67 186.02 337.75 186.02 337.67 183.07 337.67 186.02" fill="#ffd055"/><polygon points="337.67 186.02 337.75 186.02 337.67 183.07 337.67 186.02" opacity="0.5" fill="url(#c4e96ffa-f36b-4918-acc6-306f22689cf2)" style="mix-blend-mode:screen"/><polygon points="410.12 186.02 429.94 186.02 428.63 183.06 408.81 183.06 408.85 183.16 410.12 186.02" fill="#e9b250" opacity="0.5" style="mix-blend-mode:multiply"/><polygon points="408.85 183.16 408.81 183.06 337.67 183.06 337.67 183.07 337.75 186.02 410.12 186.02 408.85 183.16" fill="#e9b250" opacity="0.5" style="mix-blend-mode:multiply"/><path d="M487.82,188.73l-8.26-17.4H477.2l-20.09,14.54-6.81,2.86-27.74,11.65-4.83-10.91-.33-.74H345v-2.95h0v-3.11a5.92,5.92,0,0,1-.6-1.53l-2.19-9.57H317.08a6.93,6.93,0,0,0-6.93,6.93v1.63h8.7v5.65h-8.7v40.75a6.93,6.93,0,0,0,5.4,6.76h2.54c0-.2,0-.39,0-.59a23.05,23.05,0,0,1,46.1,0c0,.26,0,.51,0,.77h61.18a30.32,30.32,0,1,1,58.49,0h4.29V189.37Zm-150.65,0a6.22,6.22,0,1,1,.28-1.84A6.21,6.21,0,0,1,337.18,188.73Z" transform="translate(-7.29 -2.71)" fill="#ffdf3d"/><path d="M331.24,180.67a6.22,6.22,0,0,0-5.93,8.06h11.87a6.22,6.22,0,0,0-5.93-8.06Z" transform="translate(-7.29 -2.71)" fill="#efad42"/><path d="M331.24,180.67a6.22,6.22,0,0,0-5.93,8.06h11.87a6.22,6.22,0,0,0-5.93-8.06Z" transform="translate(-7.29 -2.71)" fill="url(#56a3fa88-3b77-4f70-bc4a-a88c34f06185)" style="mix-blend-mode:screen"/><path d="M331.24,180.67a6.22,6.22,0,1,0,6.21,6.21A6.21,6.21,0,0,0,331.24,180.67Z" transform="translate(-7.29 -2.71)" opacity="0.5" fill="url(#cec3c9c6-61d6-4352-b416-c75fb26b6254)" style="mix-blend-mode:screen"/><rect x="302.86" y="177.4" width="8.7" height="5.65" fill="#efad42"/><path d="M410,171.55H342.16l2.19,9.57a6.07,6.07,0,0,0,5.81,4.63h65.93Z" transform="translate(-7.29 -2.71)" fill="#424442"/><polygon points="337.67 183.06 337.67 183.07 337.67 183.06 337.67 183.06" fill="#ffd055"/><polygon points="337.67 183.06 337.67 183.07 337.67 183.06 337.67 183.06" opacity="0.64" fill="url(#19c2b5cf-a6dd-4306-8ea2-51cba68d04f5)" style="mix-blend-mode:multiply"/><polygon points="337.67 183.06 337.67 183.07 337.67 183.06 337.67 183.06" fill="url(#fae969a4-537a-47f5-aa81-78af1df2f761)" style="mix-blend-mode:screen"/><polygon points="337.67 183.06 337.67 183.07 337.67 183.06 337.67 183.06" opacity="0.5" fill="url(#d6282a9b-8541-4cbf-b8c2-69f14eecf617)" style="mix-blend-mode:screen"/><circle cx="451.13" cy="222.73" r="25.99" fill="#2f2f2f"/><circle cx="447.3" cy="222.73" r="25.99" fill="#424442"/><circle cx="447.3" cy="222.73" r="11.54" fill="#ffdf3d"/><circle cx="447.95" cy="222.73" r="2.88" fill="#efad42"/><circle cx="447.3" cy="222.73" r="2.88" fill="#ffce4a"/><polygon points="446.96 215.01 446.28 213.82 446.96 212.63 448.33 212.63 449.02 213.82 448.33 215.01 446.96 215.01" fill="#efad42"/><polygon points="437.79 223.92 437.11 222.73 437.79 221.55 439.16 221.55 439.85 222.73 439.16 223.92 437.79 223.92" fill="#efad42"/><polygon points="455.97 223.92 455.29 222.73 455.97 221.55 457.34 221.55 458.03 222.73 457.34 223.92 455.97 223.92" fill="#efad42"/><polygon points="440.88 217.85 440.19 216.66 440.88 215.47 442.25 215.47 442.93 216.66 442.25 217.85 440.88 217.85" fill="#efad42"/><polygon points="452.86 217.85 452.17 216.66 452.86 215.47 454.23 215.47 454.91 216.66 454.23 217.85 452.86 217.85" fill="#efad42"/><polygon points="440.88 229.22 440.19 228.03 440.88 226.84 442.25 226.84 442.93 228.03 442.25 229.22 440.88 229.22" fill="#efad42"/><polygon points="452.86 229.22 452.17 228.03 452.86 226.84 454.23 226.84 454.91 228.03 454.23 229.22 452.86 229.22" fill="#efad42"/><polygon points="446.96 232.94 446.28 231.76 446.96 230.57 448.33 230.57 449.02 231.76 448.33 232.94 446.96 232.94" fill="#efad42"/><polygon points="446.61 215.01 445.93 213.82 446.61 212.63 447.98 212.63 448.67 213.82 447.98 215.01 446.61 215.01" fill="#ffce4a"/><polygon points="437.44 223.92 436.76 222.73 437.44 221.55 438.81 221.55 439.5 222.73 438.81 223.92 437.44 223.92" fill="#ffce4a"/><polygon points="455.62 223.92 454.94 222.73 455.62 221.55 456.99 221.55 457.68 222.73 456.99 223.92 455.62 223.92" fill="#ffce4a"/><polygon points="440.53 217.85 439.85 216.66 440.53 215.47 441.9 215.47 442.58 216.66 441.9 217.85 440.53 217.85" fill="#ffce4a"/><polygon points="452.51 217.85 451.82 216.66 452.51 215.47 453.88 215.47 454.56 216.66 453.88 217.85 452.51 217.85" fill="#ffce4a"/><polygon points="440.53 229.22 439.85 228.03 440.53 226.84 441.9 226.84 442.58 228.03 441.9 229.22 440.53 229.22" fill="#ffce4a"/><polygon points="452.51 229.22 451.82 228.03 452.51 226.84 453.88 226.84 454.56 228.03 453.88 229.22 452.51 229.22" fill="#ffce4a"/><polygon points="446.61 232.94 445.93 231.76 446.61 230.57 447.98 230.57 448.67 231.76 447.98 232.94 446.61 232.94" fill="#ffce4a"/><path d="M364.18,232.67a18.77,18.77,0,0,0-18.77-18.77h-4.28s-14.49,10.31-14.49,18.77c0,9.64,5.13,17.71,14.49,18.77.7.08,3.56,0,4.28,0A18.77,18.77,0,0,0,364.18,232.67Z" transform="translate(-7.29 -2.71)" fill="#2f2f2f"/><circle cx="333.84" cy="229.96" r="18.77" fill="#424442"/><circle cx="333.84" cy="229.96" r="9.69" fill="#ffdf3d"/><polygon points="333.52 224.25 333.02 223.38 333.52 222.5 334.53 222.5 335.03 223.38 334.53 224.25 333.52 224.25" fill="#efad42"/><polygon points="326.79 230.79 326.29 229.92 326.79 229.05 327.8 229.05 328.3 229.92 327.8 230.79 326.79 230.79" fill="#efad42"/><polygon points="340.14 230.79 339.64 229.92 340.14 229.05 341.14 229.05 341.65 229.92 341.14 230.79 340.14 230.79" fill="#efad42"/><polygon points="329.06 226.33 328.56 225.46 329.06 224.59 330.06 224.59 330.57 225.46 330.06 226.33 329.06 226.33" fill="#efad42"/><polygon points="337.85 226.33 337.35 225.46 337.85 224.59 338.86 224.59 339.36 225.46 338.86 226.33 337.85 226.33" fill="#efad42"/><polygon points="329.06 234.68 328.56 233.81 329.06 232.94 330.06 232.94 330.57 233.81 330.06 234.68 329.06 234.68" fill="#efad42"/><polygon points="337.85 234.68 337.35 233.81 337.85 232.94 338.86 232.94 339.36 233.81 338.86 234.68 337.85 234.68" fill="#efad42"/><polygon points="333.52 237.42 333.02 236.54 333.52 235.67 334.53 235.67 335.03 236.54 334.53 237.42 333.52 237.42" fill="#efad42"/><polygon points="333.27 224.25 332.77 223.38 333.27 222.5 334.27 222.5 334.78 223.38 334.27 224.25 333.27 224.25" fill="#ffce4a"/><polygon points="326.54 230.79 326.03 229.92 326.54 229.05 327.54 229.05 328.04 229.92 327.54 230.79 326.54 230.79" fill="#ffce4a"/><polygon points="339.88 230.79 339.38 229.92 339.88 229.05 340.89 229.05 341.39 229.92 340.89 230.79 339.88 230.79" fill="#ffce4a"/><polygon points="328.8 226.33 328.3 225.46 328.8 224.59 329.81 224.59 330.31 225.46 329.81 226.33 328.8 226.33" fill="#ffce4a"/><polygon points="337.6 226.33 337.09 225.46 337.6 224.59 338.6 224.59 339.11 225.46 338.6 226.33 337.6 226.33" fill="#ffce4a"/><polygon points="328.8 234.68 328.3 233.81 328.8 232.94 329.81 232.94 330.31 233.81 329.81 234.68 328.8 234.68" fill="#ffce4a"/><polygon points="337.6 234.68 337.09 233.81 337.6 232.94 338.6 232.94 339.11 233.81 338.6 234.68 337.6 234.68" fill="#ffce4a"/><polygon points="333.27 237.42 332.77 236.54 333.27 235.67 334.27 235.67 334.78 236.54 334.27 237.42 333.27 237.42" fill="#ffce4a"/><rect x="489.38" y="170.11" width="4.87" height="59.51" fill="#efad42"/><rect x="528.38" y="170.11" width="5.57" height="59.51" fill="#efad42"/><rect x="489.35" y="169.55" width="44.6" height="3.02" fill="#efad42"/><rect x="509.84" y="170.84" width="3.63" height="58.77" fill="#efad42"/><rect x="499.73" y="170.84" width="3.63" height="58.77" fill="#efad42"/><rect x="519.53" y="170.84" width="3.63" height="58.77" fill="#efad42"/><rect x="517.13" y="180.64" width="3.63" height="44.6" transform="translate(714.59 -318.71) rotate(90)" fill="#efad42"/><path d="M450.7,119.28l-1.12-3.09a18,18,0,0,1-3.29,1.2c-.71.1-1.23-.62-1.53-1.22a27.19,27.19,0,0,1-1.12-3c-1.06-2.93-2.25-5.85-3.2-8.82-.2-.62-.49-1.82.15-2.31a3.88,3.88,0,0,1,.94-.34l2.47-.9-1.12-3.09c-2.65,1-5.63,1.52-5.93,4.92a11.16,11.16,0,0,0,1.1,4.75l2.42,6.66a21.7,21.7,0,0,0,1.7,4.2,4.59,4.59,0,0,0,4.93,2.36c1.23-.33,2.43-.87,3.62-1.3C450.63,119.09,448.42,120.1,450.7,119.28Z" transform="translate(-7.29 -2.71)" fill="#424442"/><rect x="386.82" y="64.34" width="52.89" height="3.8" fill="#efad42"/><rect x="386.82" y="64.34" width="52.89" height="3.8" opacity="0.28" fill="url(#5b6f604d-d643-4cbd-b19d-c7c8bbccad44)" style="mix-blend-mode:screen"/><rect x="344.43" y="64.34" width="69.69" height="3.8" fill="#ffd055"/><path d="M373.1,67.06h-7.66l.93-6.77a2.35,2.35,0,0,1,2.33-2h1.15a2.35,2.35,0,0,1,2.33,2Z" transform="translate(-7.29 -2.71)" fill="url(#74b163d5-6d01-47c0-bc45-63e7174e99e9)"/><path d="M372.11,168.62,371,165.32l-10.82-37.23a2.32,2.32,0,0,1,1.58-2.87l4.1-1.19,11.51,39.6h40.79v5Z" transform="translate(-7.29 -2.71)" fill="#424442"/><path d="M365.63,124.43l11.35,39,.14.47h40.7v4.34H372.35l-1-3.06L360.5,128a2,2,0,0,1,1.36-2.47l3.78-1.1m.45-.81-4.41,1.28a2.65,2.65,0,0,0-1.8,3.28l10.82,37.24,1.19,3.53h46.6V163.3H377.61l-11.53-39.68Z" transform="translate(-7.29 -2.71)" fill="#424442"/><rect x="288.59" y="248.71" width="373.12" height="4.94" rx="0.73" ry="0.73" fill="#dcd6e1"/><rect x="603.08" y="227.63" width="9.01" height="12.83" fill="#e6b88a"/><rect x="624.92" y="227.63" width="11.9" height="12.83" fill="#e6b88a"/><rect x="646.76" y="227.63" width="9.01" height="12.83" fill="#e6b88a"/><path d="M494.14,227.63H603.27a.76.76,0,0,1,.76.76v1.92a0,0,0,0,1,0,0H493.38a0,0,0,0,1,0,0v-1.92A.76.76,0,0,1,494.14,227.63Z" fill="#ffecd5"/><rect x="493.4" y="230.31" width="109.69" height="10.14" fill="#ffe5c1"/><rect x="603.08" y="227.63" width="52.69" height="2.68" fill="#f8d0a9"/><rect x="617.62" y="230.3" width="8.38" height="10.15" fill="#c08661"/><rect x="642.39" y="230.3" width="7.26" height="10.15" fill="#c08661"/><rect x="544.03" y="123.75" width="56.48" height="51.78" fill="#bc7a4b"/><rect x="526.27" y="123.75" width="51.78" height="51.78" fill="#f6cda1"/><rect x="529" y="163.54" width="13.86" height="5.84" fill="#fff"/><rect x="559.66" y="163.54" width="6.93" height="6.93" fill="#bc7a4b"/><rect x="568.32" y="163.54" width="6.93" height="6.93" fill="#bc7a4b"/><rect x="526.27" y="174.15" width="51.78" height="1.38" fill="#c08661" opacity="0.5"/><rect x="578.03" y="174.15" width="22.49" height="1.38" fill="#c08661" opacity="0.5" style="mix-blend-mode:multiply"/><rect x="526.27" y="123.8" width="51.78" height="1.38" fill="#c08661" opacity="0.5" style="mix-blend-mode:screen"/><rect x="578.03" y="123.8" width="22.49" height="1.38" fill="#c08661" opacity="0.5" style="mix-blend-mode:screen"/><rect x="544.03" y="175.67" width="56.48" height="51.78" fill="#bc7a4b"/><rect x="526.27" y="175.67" width="51.78" height="51.78" fill="#f6cda1"/><rect x="529" y="215.45" width="13.86" height="5.84" fill="#fff"/><rect x="559.66" y="215.45" width="6.93" height="6.93" fill="#bc7a4b"/><rect x="568.32" y="215.45" width="6.93" height="6.93" fill="#bc7a4b"/><rect x="526.27" y="226.07" width="51.78" height="1.38" fill="#c08661" opacity="0.5"/><rect x="578.03" y="226.07" width="22.49" height="1.38" fill="#c08661" opacity="0.5" style="mix-blend-mode:multiply"/><rect x="526.27" y="175.72" width="51.78" height="1.38" fill="#c08661" opacity="0.5" style="mix-blend-mode:screen"/><rect x="578.03" y="175.72" width="22.49" height="1.38" fill="#c08661" opacity="0.5" style="mix-blend-mode:screen"/><rect x="598.22" y="123.75" width="56.48" height="51.78" fill="#b76d36"/><rect x="580.46" y="123.75" width="51.78" height="51.78" fill="#f6cda1"/><rect x="583.19" y="163.54" width="13.86" height="5.84" fill="#fff"/><rect x="613.85" y="163.54" width="6.93" height="6.93" fill="#bc7a4b"/><rect x="622.51" y="163.54" width="6.93" height="6.93" fill="#bc7a4b"/><rect x="580.46" y="174.15" width="51.78" height="1.38" fill="#c08661" opacity="0.5"/><rect x="632.21" y="174.15" width="22.49" height="1.38" fill="#c08661" opacity="0.5" style="mix-blend-mode:multiply"/><rect x="580.46" y="123.8" width="51.78" height="1.38" fill="#c08661" opacity="0.5" style="mix-blend-mode:screen"/><rect x="632.21" y="123.8" width="22.49" height="1.38" fill="#c08661" opacity="0.5" style="mix-blend-mode:screen"/><rect x="598.22" y="175.67" width="56.48" height="51.78" fill="#b76d36"/><rect x="580.46" y="175.67" width="51.78" height="51.78" fill="#f6cda1"/><rect x="583.19" y="215.45" width="13.86" height="5.84" fill="#fff"/><rect x="613.85" y="215.45" width="6.93" height="6.93" fill="#bc7a4b"/><rect x="622.51" y="215.45" width="6.93" height="6.93" fill="#bc7a4b"/><rect x="580.46" y="226.07" width="51.78" height="1.38" fill="#c08661" opacity="0.5"/><rect x="632.21" y="226.07" width="22.49" height="1.38" fill="#c08661" opacity="0.5" style="mix-blend-mode:multiply"/><rect x="580.46" y="175.72" width="51.78" height="1.38" fill="#c08661" opacity="0.5" style="mix-blend-mode:screen"/><rect x="632.21" y="175.72" width="22.49" height="1.38" fill="#c08661" opacity="0.5" style="mix-blend-mode:screen"/><rect x="514.23" y="123.75" width="56.48" height="51.78" fill="#b76d36"/><rect x="496.48" y="123.75" width="51.78" height="51.78" fill="#f6c38b"/><rect x="499.2" y="163.54" width="13.86" height="5.84" fill="#fff"/><rect x="529.87" y="163.54" width="6.93" height="6.93" fill="#bc7a4b"/><rect x="538.52" y="163.54" width="6.93" height="6.93" fill="#bc7a4b"/><rect x="496.48" y="174.15" width="51.78" height="1.38" fill="#c08661" opacity="0.5"/><rect x="548.23" y="174.15" width="22.49" height="1.38" fill="#c08661" opacity="0.5" style="mix-blend-mode:multiply"/><rect x="496.48" y="123.8" width="51.78" height="1.38" fill="#c08661" opacity="0.5" style="mix-blend-mode:screen"/><rect x="548.23" y="123.8" width="22.49" height="1.38" fill="#c08661" opacity="0.5" style="mix-blend-mode:screen"/><rect x="480" y="151.68" width="48.93" height="1.38" transform="translate(649.54 -354.8) rotate(90)" fill="#c08661" opacity="0.5" style="mix-blend-mode:screen"/><rect x="514.23" y="175.67" width="56.48" height="51.78" fill="#b76d36"/><rect x="496.48" y="175.67" width="51.78" height="51.78" fill="#f6c38b"/><rect x="499.2" y="215.45" width="13.86" height="5.84" fill="#fff"/><rect x="529.87" y="215.45" width="6.93" height="6.93" fill="#bc7a4b"/><rect x="538.52" y="215.45" width="6.93" height="6.93" fill="#bc7a4b"/><rect x="496.48" y="226.07" width="51.78" height="1.38" fill="#c08661" opacity="0.5"/><rect x="548.23" y="226.07" width="22.49" height="1.38" fill="#c08661" opacity="0.5" style="mix-blend-mode:multiply"/><rect x="496.48" y="175.72" width="51.78" height="1.38" fill="#c08661" opacity="0.5" style="mix-blend-mode:screen"/><rect x="480" y="203.6" width="48.93" height="1.38" transform="translate(701.46 -302.88) rotate(90)" fill="#c08661" opacity="0.5" style="mix-blend-mode:screen"/><rect x="548.23" y="175.72" width="22.49" height="1.38" fill="#c08661" opacity="0.5" style="mix-blend-mode:screen"/><rect x="569.44" y="123.75" width="56.48" height="51.78" fill="#b76d36"/><rect x="551.68" y="123.75" width="51.78" height="51.78" fill="#f6c38b"/><rect x="554.41" y="163.54" width="13.86" height="5.84" fill="#fff"/><rect x="585.07" y="163.54" width="6.93" height="6.93" fill="#bc7a4b"/><rect x="593.73" y="163.54" width="6.93" height="6.93" fill="#bc7a4b"/><rect x="551.68" y="174.15" width="51.78" height="1.38" fill="#c08661" opacity="0.5"/><rect x="603.43" y="174.15" width="22.49" height="1.38" fill="#c08661" opacity="0.5" style="mix-blend-mode:multiply"/><rect x="551.68" y="123.8" width="51.78" height="1.38" fill="#c08661" opacity="0.5" style="mix-blend-mode:screen"/><rect x="603.43" y="123.8" width="22.49" height="1.38" fill="#c08661" opacity="0.5" style="mix-blend-mode:screen"/><rect x="569.44" y="175.67" width="56.48" height="51.78" fill="#b76d36"/><rect x="551.68" y="175.67" width="51.78" height="51.78" fill="#f6c38b"/><rect x="554.41" y="215.45" width="13.86" height="5.84" fill="#fff"/><rect x="585.07" y="215.45" width="6.93" height="6.93" fill="#bc7a4b"/><rect x="593.73" y="215.45" width="6.93" height="6.93" fill="#bc7a4b"/><rect x="551.68" y="226.07" width="51.78" height="1.38" fill="#c08661" opacity="0.5"/><rect x="603.43" y="226.07" width="22.49" height="1.38" fill="#c08661" opacity="0.5" style="mix-blend-mode:multiply"/><rect x="551.68" y="175.72" width="51.78" height="1.38" fill="#c08661" opacity="0.5" style="mix-blend-mode:screen"/><rect x="603.43" y="175.72" width="22.49" height="1.38" fill="#c08661" opacity="0.5" style="mix-blend-mode:screen"/></g></g></svg>