<svg id="217e7a8b-fd87-4bcc-8f25-2f1c4e359559" data-name="Слой 1" xmlns="http://www.w3.org/2000/svg" viewBox="0 0 661.71 253"><title>home_header_img_thumb</title><path d="M272.56,233H262V220h-1V118h2V105h-1V3H106V105h-2.69c-.42,0-.31.52-.31.94V118h2V220h-2.13c-.42,0-.87.66-.87,1.07V233H96.34A1.3,1.3,0,0,0,95,234.37v1.76c0,.79.55,1.87,1.34,1.87H272.56c.79,0,1.44-1.08,1.44-1.87v-1.76A1.38,1.38,0,0,0,272.56,233Z" transform="translate(-7.29 -3)" fill="#a8a8a8"/><path d="M69.1,147.34l-.37-.11a2.69,2.69,0,0,0-5-1.47l-.32-.09a.43.43,0,0,0-.53.29l-.07.26-.58-.17a.42.42,0,0,0-.52.29l-4.51,15.48-.72.15-2.76-4.72a.26.26,0,0,0-.12-.09.75.75,0,0,0,0-.1.8.8,0,0,0-1.39.81.74.74,0,0,0,.07.08.26.26,0,0,0,0,.15l2.47,4.23-4.79,1a.43.43,0,0,0-.36.34L37.41,166.2c-.47-12.39-3.77-18.2-7-20.2h.09l-1.88-3H26v-2c3,0,4.79.24,6.51-.27a2.87,2.87,0,0,0,1.91-2.93c0-2.08-.42-5.22-.42-6.5v-4.13a6.62,6.62,0,0,0-.09-2l1-.35c.14-.05.26-.21.2-.34l-.3-.73,1.87-.72a.31.31,0,0,0,.19-.41l-1-2.17a.35.35,0,0,0-.44-.17l-.31.12a17.08,17.08,0,0,0-8.9-6.71,18.07,18.07,0,0,0-14.62,1.17c-5,2.62-5.11,10.28-3.25,15.56l.1.3-.06,0a.31.31,0,0,0-.18.41l1,2.17a.35.35,0,0,0,.44.17L11,133l.33.73a.29.29,0,0,0,.36.14l.29-.11,1.62,2.95.83.16A15,15,0,0,0,18,140v3H16.29c-.55,0-.71.13-1,.69l-.76,1.49a.88.88,0,0,0,1,.82h.14c-1.54,2-2.67,5.94-2.67,10.06v38c0,.6,1,1.12,1,1.34v4.24A1.39,1.39,0,0,0,15.37,201H18v46H17v3h.22c-.13,0-.22.07-.22.16V252H8.19c-.38,0-.19,0-.19.41v3.27c0,.38-.18.32.19.32H47.07c.38,0,.93.05.93-.32v-3.27c0-.38-.56-.41-.93-.41H37.64l-4.74-2H34v-3H33V201h1.58a1.79,1.79,0,0,0,1.81-1.68l.09-3.93a3.41,3.41,0,0,0,2-3.28s-.57-9.71-.87-16.76l16.22,1.09a.33.33,0,0,0,.08.12.42.42,0,0,0,.3.4L60,178.63a.43.43,0,0,0,.53-.29l.34-1.16.9.06h.06a.85.85,0,0,0,1-.66l0-.56h.25l0-.3-.25,0,0-1.18h.26l.06-.3-.23,0,.08-.88a.82.82,0,0,0-.84-.78l7.19-24.7A.43.43,0,0,0,69.1,147.34ZM26,250.14v.2L24.37,250H25V201h1v49h.06A.15.15,0,0,0,26,250.14Zm28.11-77.85-16-1.07-.25-.89,12.45-2.58a.42.42,0,0,0,.46.17l4.87-1Z" transform="translate(-7.29 -3)" fill="#a8a8a8"/><path d="M668.27,251H499.15a24.52,24.52,0,0,0,18.23-8H619V233h6v10h19V233h6v10h13V230h-1V126H536V72h-5V61H485.93c-1.32,0-1.93,1-1.93,2.35v9.39c0,1.32.62,2.26,1.93,2.26H495v76.15c-1-.74-.67-1.47-.93-2.19-3.64-10.06-7.37-20.11-11-30.17-3.36-9.28-6.76-18.56-10.12-27.83-.72-2-1.36-4-2.18-6a21.33,21.33,0,0,0-4.28-6.06A26.68,26.68,0,0,0,453,71.3a30,30,0,0,0-6-.62V67H373.1l-.93-6.87A2.44,2.44,0,0,0,369.84,58H368.7a2.44,2.44,0,0,0-2.33,2.13L365.44,67H352v4h12.21A13.78,13.78,0,0,0,352.6,82.87c-1,7.9-1.82,15.81-2.74,23.72-2.13,18.43-4.28,37.07-6.43,55.5-.38,3.23-.76,5.91-1.14,9.91H317.08c-3.83,0-7.08,2.65-7.08,6.48v48a6.75,6.75,0,0,0,5.48,6.54,7.8,7.8,0,0,0,1.6,0h5.32a18.53,18.53,0,0,0,18.34,18H296.6c-.4,0-.6.75-.6,1.15v3.48c0,.4.2.37.6.37H668.27c.4,0,.73,0,.73-.37v-3.48C669,251.75,668.68,251,668.27,251ZM535.51,178.24h.16v.14h-.16Zm0,51.92h.16v.18h-.16ZM512,75h8v51h-8Zm-28.84,68c.64,2,1.28,3.57,1.93,5.35,1.28,3.53,2.55,7.2,3.83,10.73.33.92.65,1.92,1,2.92H474.37a17.66,17.66,0,0,1-.68-2.26,16.4,16.4,0,0,0-.62-1.9c-1.07-2.95-2.13-5.93-3.2-8.88q-1.07-3-2.14-5.95h15.42Zm-4.58,27.06-.48.42,0,0ZM448.58,90c-.25-1-.5-1-.76-2h1.28l1,2Zm.86,26.25a16,16,0,0,1-3.16,1.14c-.71.1-1.23-.62-1.53-1.22a27.17,27.17,0,0,1-1.12-3c-1.06-2.93-2.25-5.85-3.2-8.82-.2-.62-.49-1.82.15-2.31a3.88,3.88,0,0,1,.94-.34l2.34-.85Zm2-23.25,1.39,3h-2.21l-1.06-3Zm13.66,25-1.39-3h5.76l1.39,3Zm7,3,1.39,3h-5.76l-1.39-3Zm-9.69-9L461,110h5.76l1.39,2Zm-2.66-5-1.39-3h5.76l1.39,3Zm-2.66-6-1.39-3h5.76l1.39,3Zm-2.66-5L453,93h5.76l1.39,3Zm-2.66-6-1-2h5.76l1,2Zm2.3,8,1.39,3h-2.85l-1.06-3Zm2.66,6,1.39,3h-3.48l-1.06-3Zm2.66,6,1.39,2h-4.12c-.35-1-.71-1-1.06-2Zm2.66,5,1.39,3h-4.76l-1.06-3Zm2.66,6,1.39,3h-5.39l-1.06-3Zm2.66,5,1.39,3h-6l-1.06-3Zm2.66,6,1.39,3h-6.67l-1.06-3Zm2.66,5,1.39,3h-7.3l-1.06-3Zm8.78,3h-5.76l-1.39-3h5.76Zm-2.35-8.12.23.62-.3-.62ZM473,135l-1.39-3h5.76l1.39,3Zm4-9,1.06,3h-.38l-1.39-3Zm-6.71,3L469,126h5.76l1.39,3Zm5.74-5h-1l-1.39-3h1.35Zm-3.08-9,1.06,3h-1.65l-1.39-3Zm-2-5c.35,1,.71,1,1.06,2H469.8l-1.39-2Zm-1-3h-2.93l-1.39-3H469ZM467,98l1.06,3h-3.57l-1.39-3Zm-2-4.84c.34.93.68,1.84,1,2.84h-4.2l-1.39-3H465S465,93.12,465,93.16Zm-1.59-4.69c.24.52.45,1.53.64,1.53h-4.9l-1-2h5C463.22,88,463.33,88.28,463.42,88.47ZM447,78.64A19.66,19.66,0,0,1,461.36,85h-4.5l0,0-1.61,0h-5.76l-1.64,0,0,0h-1s-.07-.05-.11-.14a21,21,0,0,0-4.27-6c0-.05-.1-.06-.15-.11C443.86,78.76,445.43,78.63,447,78.64Zm-42.21,8.18a33.28,33.28,0,0,0-2.59-6.31,5.07,5.07,0,0,0-.38-.68l.86-.33c.15-.06.22-.12.16-.26l-.16-.25H423c6.55,0,13.55,3.43,16.42,9.6C440,90,440.47,91.51,441,93l1.75,4.81c-2.62.94-5.51,1.52-5.8,4.86a11.14,11.14,0,0,0,1.1,4.75l2.42,6.66a21.69,21.69,0,0,0,1.7,4.2,4.59,4.59,0,0,0,4.93,2.36c1.18-.32,2.34-.83,3.48-1.25l10.51,29L464.9,159a39,39,0,0,1,1.5,4.13c.18.75.4,1.5.65,2.25l-2.23,1.06-5.47-8.4-.51.33-11.48-17.62a21,21,0,0,0,3.33-9.79c.13-2.46-.45-5.15-2.49-6.73a6.52,6.52,0,0,0-5.59-.95c-4.38,1.08-8,4.66-10.47,8.42l-5.46-.37a.46.46,0,0,0-.47.25l-14.28-1-.57-4.22c-.4-3-.65-4.71-1.43-10.32-.65-4.71-4.31-10.81-8.76-13.41l2.47-.33-2.48-3.35-3.54.48,0-.16,0-.2C402.82,97.79,406.74,95.41,404.78,86.82Zm30.6,48.37.09-1.2,0-.06.23,0v0l1.25,2.7L432.06,144a10.12,10.12,0,0,1,.08-1.93,16.89,16.89,0,0,1,1.74-5.33l.39,0a.91.91,0,0,0,1-.7l0-.6.27,0,0-.32Zm5.16,3.49.68-.11-.64.33,1.46,2.24a19,19,0,0,1-3.89,3.75,10.56,10.56,0,0,1-2.7,1.44Zm0-4.14-2-4.23a16.5,16.5,0,0,1,2.51-2c1.11-.69,2.75-1.58,4.1-1.16s1.47,2.21,1.42,3.4a13.18,13.18,0,0,1-.53,3.07Zm-29,21.46h-2.85v-.23l2.85,0Zm-7.08,0H401l1.5-.2h1.89Zm-23.94-35.48c.94-8.14,1.88-16.38,2.82-24.52a10.27,10.27,0,0,0,5.83,3.9l.16.68-4.17.55c-.58.08-.7.48-.91,1.11l-.58,1.78a1,1,0,0,0,1.18.83l.15,0c-1.33,2.49-1.67,6.85-1.08,11.2l1.05,8h-4.82C380.22,123,380.34,121.62,380.47,120.52ZM376.08,158l1.54,5.28h0L376.08,158ZM345.8,251a18.18,18.18,0,0,0,12.09-4.76A18.18,18.18,0,0,0,370,251Zm26.1-127H366v-.19L361.63,125a2.58,2.58,0,0,0-1.78,3.23l8.23,28.24c-.21,1.8-.41,3.82-.62,5.62-.38,3.23-.75,5.91-1.13,9.91H350.48c2-18,4-34.37,6-51.45,1.29-11.16,2.59-22.44,3.87-33.61.33-2.87.34-5.89,3.38-7.42,2-1,4.85-.53,7-.53h2.66s0,.62,0,1a18,18,0,0,0,.85,5.29c.06.2.11.36.18.55h-.06a.32.32,0,0,0-.2.43l1,2.31a.37.37,0,0,0,.47.18l.29-.11c-.71,6-1.32,12.14-2,18.11C373.22,112.44,372.56,118,371.9,124Zm2.9,45H378v3h-3.5Zm1.39,82a18.53,18.53,0,0,0,18.34-18h35.32a24.62,24.62,0,0,0,24,18Zm58-79.88.33.43h-.15Zm1,1.41L445.51,186h-4.07ZM451,185.9v0l2.39-2L441.73,169H444v-6h-6.61l-4.92-6.05c-.35-.45-.47-.61-1.47-.77V156h-3.62c-.66,0-1.53-.58-2.32-.24l-.56.24H412.91v-.25h2.61l0-2.45h-1a6.31,6.31,0,0,0,.06-2.8l-1.89-14,7.46.5a.44.44,0,0,0,.42.31l8,.54a1.22,1.22,0,0,0,.41,0c-1.5,4.23-2,9.28,1.77,11.81,4.8,3,10.47-1.41,13.59-4.93l10.54,16.17-.52.34,5,7.73-2.37,1.1v15.81l14.34-10.49s.1.12.12.17L457.11,186h-1.58l-1.64-2.44Zm4.37,65.1c.38,0,.76,0,1.14-.06s.75.06,1.14.06Zm3.84,0a24.91,24.91,0,0,0,16.48-6.55A24.91,24.91,0,0,0,492.16,251Zm34.52,0a15.4,15.4,0,0,1,3.86,0Z" transform="translate(-7.29 -3)" fill="#a8a8a8"/></svg>