<?xml version="1.0" encoding="utf-8"?>
<!DOCTYPE svg PUBLIC "-//W3C//DTD SVG 1.1//EN" "http://www.w3.org/Graphics/SVG/1.1/DTD/svg11.dtd">
<svg version="1.1" id="Layer_1" xmlns="http://www.w3.org/2000/svg" xmlns:xlink="http://www.w3.org/1999/xlink" x="0px" y="0px"
	 width="100px" height="100px" viewBox="0 0 100 100" enable-background="new 0 0 100 100" xml:space="preserve">
<g>
	<g>
		<path fill="#FFFFFF" d="M89.031,48.475h-29.26c0.84-1.037,1.34-2.354,1.34-3.786v-3.786h20.348L89.031,48.475z"/>
		<polygon fill="#FFFFFF" points="78.96,38.403 61.111,38.403 61.111,30.831 71.388,30.831 		"/>
	</g>
	<g>
		<path fill="#FFFFFF" d="M89.031,51.527L81.459,59.1H61.111v-3.787c0-1.432-0.5-2.749-1.34-3.785H89.031z"/>
		<polygon fill="#FFFFFF" points="78.96,61.598 71.388,69.17 61.111,69.17 61.111,61.598 		"/>
	</g>
	<g>
		<g>
			<path fill="#FFFFFF" d="M48.825,8.178v18.925c0,2.082,0,5.489,0,7.572l0,0c0,2.082-1.704,3.786-3.786,3.786l0,0
				c-2.083,0-5.49,0-7.573,0H18.542l-7.572-7.572h30.283V0.605L48.825,8.178z"/>
		</g>
		<g>
			<path fill="#FFFFFF" d="M51.267,10.62v26.496c0,2.083-1.704,3.787-3.786,3.787H20.983l7.572,7.572H47.48c2.082,0,5.49,0,7.572,0
				l0,0c2.082,0,3.787-1.704,3.787-3.786l0,0c0-2.083,0-5.49,0-7.573V18.192L51.267,10.62z"/>
		</g>
	</g>
	<g>
		<g>
			<path fill="#FFFFFF" d="M18.542,61.538h18.924c2.083,0,5.49,0,7.573,0l0,0c2.082,0,3.786,1.704,3.786,3.786l0,0
				c0,2.082,0,5.49,0,7.572v18.926l-7.572,7.572V69.111H10.969L18.542,61.538z"/>
		</g>
		<g>
			<path fill="#FFFFFF" d="M20.983,59.098H47.48c2.083,0,3.787,1.704,3.787,3.787v26.494l7.572-7.57V62.885c0-2.083,0-5.49,0-7.573
				l0,0c0-2.083-1.703-3.786-3.786-3.786l0,0c-2.083,0-5.49,0-7.573,0H28.557L20.983,59.098z"/>
		</g>
	</g>
</g>
</svg>
