<svg id="33d8669a-137b-4f8c-a2fe-97baa390e851" data-name="Слой 1" xmlns="http://www.w3.org/2000/svg" viewBox="0 0 686.67 200.52"><title>logo3</title><path d="M158.11,96.87H98.85a12.14,12.14,0,0,0,2.71-7.67V81.53h41.21Z" transform="translate(0 0.09)" fill="#fff"/><polygon points="137.71 76.56 101.56 76.56 101.56 61.22 122.38 61.22 137.71 76.56" fill="#fff"/><path d="M158.11,103l-15.34,15.34H101.56v-7.67a12.13,12.13,0,0,0-2.71-7.67h59.26Z" transform="translate(0 0.09)" fill="#fff"/><polygon points="137.71 123.54 122.38 138.87 101.56 138.87 101.56 123.54 137.71 123.54" fill="#fff"/><path d="M76.68,15.25V68.92h0A7.69,7.69,0,0,1,69,76.58H15.34L0,61.25H61.34V-.09Z" transform="translate(0 0.09)" fill="#fff"/><path d="M81.62,20.19V73.86A7.69,7.69,0,0,1,74,81.53H20.28L35.62,96.87H89.29A7.69,7.69,0,0,0,97,89.2h0V35.53Z" transform="translate(0 0.09)" fill="#fff"/><path d="M15.34,123.32H69A7.69,7.69,0,0,1,76.68,131h0v53.67L61.34,200V138.66H0Z" transform="translate(0 0.09)" fill="#fff"/><path d="M20.28,118.38H74a7.69,7.69,0,0,1,7.67,7.67v53.66L97,164.38V110.71h0A7.69,7.69,0,0,0,89.29,103H35.62Z" transform="translate(0 0.09)" fill="#fff"/><path d="M239.93,199.47l-19.51-30.1H206.5v30.1H192.58V112.86H217q14.51,0,23.26,7.38T249,140.7a32.87,32.87,0,0,1-3.4,14.81A23.22,23.22,0,0,1,234.94,166L256,199.47ZM206.5,156h12.37q8.33,0,12.08-4.58a15.85,15.85,0,0,0,3.75-10.29,17.27,17.27,0,0,0-1.43-6.72,13.58,13.58,0,0,0-4.88-5.83,15.33,15.33,0,0,0-9-2.44H206.5Z" transform="translate(0 0.09)" fill="#fff"/><path d="M329.76,112.86v13.32H286.22v23.08H325v13.32H286.22v23.56h45.21v13.32H272.29V112.86Z" transform="translate(0 0.09)" fill="#fff"/><path d="M404.29,197.93a41.88,41.88,0,0,1-14.69,2.5q-13.45,0-23.49-5.89a40.57,40.57,0,0,1-15.47-15.82,44.84,44.84,0,0,1-5.42-21.83,48.79,48.79,0,0,1,5.42-23.2,40,40,0,0,1,15.11-16,42.31,42.31,0,0,1,22.07-5.77,47.14,47.14,0,0,1,14.1,2A50.14,50.14,0,0,1,413.39,119l-5.47,13q-9.63-6.78-19.63-6.78a26.42,26.42,0,0,0-14.22,4.11,30,30,0,0,0-10.53,11.18A31.41,31.41,0,0,0,359.62,156a34.53,34.53,0,0,0,3.63,16,26.77,26.77,0,0,0,10.35,11.07,29.88,29.88,0,0,0,15.52,4,32,32,0,0,0,11.36-1.9,27.94,27.94,0,0,0,8.51-4.88l5.83,12.37A45.39,45.39,0,0,1,404.29,197.93Z" transform="translate(0 0.09)" fill="#fff"/><path d="M433.85,134.22A45.21,45.21,0,0,1,450,118a43.39,43.39,0,0,1,44.26,0,46.07,46.07,0,0,1,16.24,16.3,43.34,43.34,0,0,1,.06,44.14,44.71,44.71,0,0,1-16.24,16.06,44.42,44.42,0,0,1-44.32.06,44,44,0,0,1-16.12-16,44.25,44.25,0,0,1,0-44.31Zm12.38,37.53a30.66,30.66,0,0,0,11,11.18,29.24,29.24,0,0,0,15.29,4.16,28.41,28.41,0,0,0,15-4.1,30.07,30.07,0,0,0,10.76-11.18,32.11,32.11,0,0,0-.06-31.11,30.58,30.58,0,0,0-10.94-11.3,29.59,29.59,0,0,0-30.28,0,30.23,30.23,0,0,0-10.83,11.3,31.45,31.45,0,0,0-4,15.58A30.43,30.43,0,0,0,446.23,171.75Z" transform="translate(0 0.09)" fill="#fff"/><path d="M582.33,199.47l-19.51-30.1H548.9v30.1H535V112.86h24.39q14.51,0,23.26,7.38t8.75,20.46a32.87,32.87,0,0,1-3.4,14.81A23.22,23.22,0,0,1,577.33,166l21.06,33.43ZM548.9,156h12.37q8.33,0,12.08-4.58a15.85,15.85,0,0,0,3.75-10.29,17.27,17.27,0,0,0-1.43-6.72,13.58,13.58,0,0,0-4.88-5.83,15.33,15.33,0,0,0-9-2.44H548.9Z" transform="translate(0 0.09)" fill="#fff"/><path d="M614.69,112.86h24.63q16.31,0,27,6.42a39.05,39.05,0,0,1,15.52,16.54,48.93,48.93,0,0,1,4.88,21.53,41.49,41.49,0,0,1-5.89,22.19A40,40,0,0,1,665,194.3a45.73,45.73,0,0,1-21.54,5.17H614.69ZM641,186.15a36.87,36.87,0,0,0,16.36-3.45,25.64,25.64,0,0,0,11.07-10.17,31.06,31.06,0,0,0,4-16.12q0-10.23-4.34-17.07A26.65,26.65,0,0,0,657,129.28a31.82,31.82,0,0,0-13.86-3.22H628.61v60.08Z" transform="translate(0 0.09)" fill="#fff"/><path d="M235,26.19a22.7,22.7,0,0,1,8.24,9.6,33.22,33.22,0,0,1,2.94,14.37,33.77,33.77,0,0,1-3,14.53,23.27,23.27,0,0,1-8.29,9.81A21.68,21.68,0,0,1,222.79,78a21.26,21.26,0,0,1-10.44-2.52,16.44,16.44,0,0,1-6.87-7v8.71h-12.9V-.09h13V32.11a17.07,17.07,0,0,1,6.92-6.87,21.1,21.1,0,0,1,10.29-2.46A22.1,22.1,0,0,1,235,26.19ZM229.4,63.06Q233,58.45,233,50.16T229.4,37.52q-3.57-4.46-10.18-4.46T209,37.57q-3.57,4.51-3.57,12.8T209,63.22q3.56,4.46,10.28,4.46Q225.83,67.68,229.4,63.06Z" transform="translate(0 0.09)" fill="#fff"/><path d="M308.28,24.14v53H295.38v-8.5a17,17,0,0,1-6.92,6.87A21.09,21.09,0,0,1,278.17,78,22.59,22.59,0,0,1,265.9,74.6a22.16,22.16,0,0,1-8.28-9.54,33.1,33.1,0,0,1-2.94-14.37,33.66,33.66,0,0,1,3-14.53A23.38,23.38,0,0,1,266,26.29a21.62,21.62,0,0,1,12.17-3.51,21.09,21.09,0,0,1,10.28,2.46,17,17,0,0,1,6.92,6.87v-8Zm-16.48,39q3.57-4.51,3.57-12.69,0-8.39-3.57-12.9t-10.17-4.51a12.08,12.08,0,0,0-10.12,4.67q-3.62,4.67-3.62,13t3.62,12.59q3.61,4.41,10.23,4.41T291.81,63.16Z" transform="translate(0 0.09)" fill="#fff"/><path d="M322.56,77.12V-.09h13V77.12Z" transform="translate(0 0.09)" fill="#fff"/><path d="M402.49,77.12H386.13L362.94,52.68V77.12h-13V-.09h13V47.54l21.82-23.29h15.84L376.79,49.53Z" transform="translate(0 0.09)" fill="#fff"/><path d="M457.67,24.14v53H444.76v-8.5a17,17,0,0,1-6.92,6.87A21.09,21.09,0,0,1,427.56,78a22.59,22.59,0,0,1-12.28-3.36A22.16,22.16,0,0,1,407,65.06a33.1,33.1,0,0,1-2.94-14.37,33.66,33.66,0,0,1,3-14.53,23.38,23.38,0,0,1,8.34-9.86,21.62,21.62,0,0,1,12.17-3.51,21.09,21.09,0,0,1,10.28,2.46,17,17,0,0,1,6.92,6.87v-8Zm-16.48,39q3.57-4.51,3.57-12.69,0-8.39-3.57-12.9T431,33.06a12.08,12.08,0,0,0-10.12,4.67q-3.62,4.67-3.62,13t3.62,12.59q3.61,4.41,10.23,4.41T441.19,63.16Z" transform="translate(0 0.09)" fill="#fff"/><path d="M521.23,44.6V77.12H508.12V45.23q0-6.29-2.42-9.18t-7.44-2.88A12.77,12.77,0,0,0,488.61,37a14,14,0,0,0-3.67,10.12v30h-13v-38a119.27,119.27,0,0,0-.85-15h12.28l.95,8.71a19.11,19.11,0,0,1,7.39-7.45,21.16,21.16,0,0,1,10.54-2.62Q521.23,22.78,521.23,44.6Z" transform="translate(0 0.09)" fill="#fff"/><path d="M544.84,74.6a22.83,22.83,0,0,1-9.34-9.49,30.37,30.37,0,0,1-3.24-14.42,30.17,30.17,0,0,1,3.41-14.58,24.36,24.36,0,0,1,9.65-9.81,28.92,28.92,0,0,1,14.43-3.51,34.21,34.21,0,0,1,11,1.78,21.39,21.39,0,0,1,8.44,4.93l-3.67,9.23a25.5,25.5,0,0,0-7.13-4.14,21.14,21.14,0,0,0-7.45-1.41q-7.13,0-11.12,4.46t-4,12.85q0,8.39,3.93,12.8t11.18,4.41a20.41,20.41,0,0,0,7.45-1.47,26.44,26.44,0,0,0,7.13-4.2l3.67,9.23a23.33,23.33,0,0,1-8.71,4.93A35.28,35.28,0,0,1,559.22,78,29.26,29.26,0,0,1,544.84,74.6Z" transform="translate(0 0.09)" fill="#fff"/><path d="M638.63,24.14v53H625.72v-8.5a17,17,0,0,1-6.92,6.87A21.09,21.09,0,0,1,608.52,78a22.59,22.59,0,0,1-12.28-3.36A22.16,22.16,0,0,1,588,65.06,33.1,33.1,0,0,1,585,50.68a33.66,33.66,0,0,1,3-14.53,23.38,23.38,0,0,1,8.34-9.86,21.62,21.62,0,0,1,12.17-3.51,21.09,21.09,0,0,1,10.28,2.46,17,17,0,0,1,6.92,6.87v-8Zm-16.48,39q3.57-4.51,3.57-12.69,0-8.39-3.57-12.9T612,33.06a12.08,12.08,0,0,0-10.12,4.67q-3.62,4.67-3.62,13t3.62,12.59q3.61,4.41,10.23,4.41T622.15,63.16Z" transform="translate(0 0.09)" fill="#fff"/><path d="M686.67,23.72l-.1,12a18.32,18.32,0,0,0-6.92-1.36q-6.71,0-10.23,3.88t-3.52,10.28V77.12h-13v-38a119.27,119.27,0,0,0-.85-15h12.28l1.05,9.34a15.72,15.72,0,0,1,6.29-7.87,17.84,17.84,0,0,1,9.76-2.73A14.74,14.74,0,0,1,686.67,23.72Z" transform="translate(0 0.09)" fill="#fff"/></svg>